<svg xmlns="http://www.w3.org/2000/svg" width="1920" height="497" viewBox="0 0 1920 497" fill="none"><path d="M120.281 497C94.3641 497 72.4344 492.124 54.4919 482.373C36.5495 472.399 22.9265 459.212 13.623 442.812C4.541 426.412 0 408.349 0 388.624C0 371.337 2.87966 355.823 8.63897 342.082C14.3983 328.12 23.2588 316.152 35.2204 306.179C47.182 295.984 62.6879 287.673 81.7379 281.246C96.1362 276.591 112.971 272.38 132.243 268.613C151.736 264.845 172.779 261.41 195.374 258.307C218.189 254.983 242.002 251.437 266.811 247.669L238.236 263.959C238.458 239.136 232.92 220.852 221.623 209.106C210.326 197.359 191.276 191.486 164.473 191.486C148.302 191.486 132.686 195.254 117.623 202.789C102.56 210.325 92.0382 223.29 86.0574 241.685L12.9584 218.746C21.8189 188.383 38.6538 164.004 63.4632 145.609C88.494 127.214 122.164 118.017 164.473 118.017C196.37 118.017 224.392 123.225 248.536 133.641C272.903 144.058 290.956 161.123 302.696 184.837C309.12 197.47 312.996 210.435 314.326 223.733C315.655 236.809 316.319 251.104 316.319 266.618V487.027H246.211V409.235L257.84 421.868C241.67 447.799 222.73 466.859 201.022 479.048C179.535 491.016 152.622 497 120.281 497ZM136.23 433.171C154.394 433.171 169.9 429.958 182.747 423.53C195.595 417.103 205.785 409.235 213.316 399.927C221.069 390.619 226.274 381.864 228.933 373.664C233.141 363.469 235.467 351.834 235.91 338.758C236.575 325.46 236.907 314.711 236.907 306.511L261.495 313.825C237.35 317.592 216.639 320.917 199.361 323.798C182.083 326.679 167.242 329.449 154.837 332.109C142.432 334.547 131.467 337.317 121.942 340.42C112.639 343.744 104.775 347.623 98.3513 352.056C91.9275 356.488 86.9434 361.586 83.3993 367.348C80.0766 373.11 78.4152 379.87 78.4152 387.627C78.4152 396.492 80.6304 404.36 85.0606 411.23C89.4908 417.879 95.9147 423.198 104.332 427.187C112.971 431.177 123.604 433.171 136.23 433.171Z" fill="white" fill-opacity="0.05"></path><path d="M613.149 487.027C589.447 491.459 566.188 493.343 543.372 492.678C520.778 492.235 500.51 488.135 482.567 480.378C464.625 472.399 451.002 459.877 441.698 442.812C433.502 427.298 429.183 411.452 428.74 395.273C428.297 379.094 428.075 360.81 428.075 340.42V28.2575H507.82V335.766C507.82 350.172 507.93 362.804 508.152 373.664C508.595 384.524 510.921 393.389 515.13 400.26C523.104 413.557 535.841 420.982 553.34 422.533C570.84 424.085 590.776 423.198 613.149 419.874V487.027ZM362.951 190.821V127.99H613.149V190.821H362.951Z" fill="white" fill-opacity="0.05"></path><path d="M696.958 73.4696V0H777.035V73.4696H696.958ZM696.958 487.027V127.99H777.035V487.027H696.958Z" fill="white" fill-opacity="0.05"></path><path d="M973.587 487.027L843.338 127.99H923.414L1013.79 388.292L1103.84 127.99H1184.24L1054 487.027H973.587Z" fill="white" fill-opacity="0.05"></path><path d="M1389.39 497C1353.5 497 1322.16 488.911 1295.36 472.732C1268.55 456.553 1247.73 434.279 1232.89 405.911C1218.27 377.321 1210.96 344.52 1210.96 307.508C1210.96 269.832 1218.49 236.809 1233.56 208.441C1248.62 180.072 1269.55 157.91 1296.35 141.952C1323.16 125.995 1354.17 118.017 1389.39 118.017C1425.5 118.017 1456.95 126.106 1483.75 142.285C1510.56 158.464 1531.38 180.848 1546.22 209.438C1561.06 237.806 1568.48 270.497 1568.48 307.508C1568.48 344.742 1560.95 377.654 1545.89 406.243C1531.05 434.612 1510.22 456.885 1483.42 473.064C1456.62 489.021 1425.27 497 1389.39 497ZM1389.39 421.868C1421.29 421.868 1444.99 411.23 1460.49 389.954C1476 368.678 1483.75 341.196 1483.75 307.508C1483.75 272.713 1475.89 245.009 1460.16 224.398C1444.43 203.565 1420.84 193.148 1389.39 193.148C1367.9 193.148 1350.18 198.024 1336.23 207.776C1322.49 217.306 1312.3 230.714 1305.66 248.001C1299.01 265.067 1295.69 284.902 1295.69 307.508C1295.69 342.304 1303.55 370.118 1319.28 390.951C1335.23 411.563 1358.6 421.868 1389.39 421.868Z" fill="white" fill-opacity="0.05"></path><path d="M1771.81 497C1727.51 497 1691.51 487.027 1663.82 467.08C1636.13 447.134 1619.3 419.098 1613.32 382.973L1695.05 370.34C1699.26 388.07 1708.57 402.033 1722.96 412.227C1737.36 422.422 1755.53 427.52 1777.46 427.52C1796.73 427.52 1811.57 423.752 1821.98 416.217C1832.61 408.46 1837.93 397.932 1837.93 384.635C1837.93 376.435 1835.94 369.897 1831.95 365.021C1828.18 359.923 1819.77 355.048 1806.7 350.393C1793.63 345.739 1773.58 339.866 1746.56 332.774C1716.43 324.795 1692.51 316.263 1674.79 307.176C1657.07 297.868 1644.33 286.897 1636.58 274.264C1628.82 261.631 1624.95 246.339 1624.95 228.387C1624.95 206.003 1630.82 186.5 1642.56 169.878C1654.3 153.256 1670.69 140.512 1691.73 131.647C1712.78 122.56 1737.58 118.017 1766.16 118.017C1794.07 118.017 1818.77 122.338 1840.26 130.982C1861.96 139.625 1879.46 151.926 1892.75 167.883C1906.04 183.84 1914.24 202.568 1917.34 224.066L1835.6 238.693C1833.61 223.401 1826.63 211.322 1814.67 202.457C1802.93 193.592 1787.2 188.605 1767.49 187.497C1748.66 186.389 1733.49 189.27 1721.97 196.14C1710.45 202.789 1704.69 212.208 1704.69 224.398C1704.69 231.268 1707.02 237.142 1711.67 242.017C1716.32 246.893 1725.62 251.769 1739.58 256.645C1753.76 261.521 1774.8 267.505 1802.71 274.597C1831.28 281.91 1854.1 290.332 1871.16 299.862C1888.43 309.171 1900.84 320.363 1908.37 333.439C1916.12 346.515 1920 362.361 1920 380.978C1920 417.103 1906.82 445.472 1880.46 466.083C1854.32 486.694 1818.1 497 1771.81 497Z" fill="white" fill-opacity="0.05"></path></svg>