<svg width="22" height="29" viewBox="0 0 22 29" fill="none" xmlns="http://www.w3.org/2000/svg">
<path d="M7.89998 16.2667L9.06664 12.4667L5.99998 10.0001H9.79998L11 6.26675L12.2 10.0001H16L12.9 12.4667L14.0666 16.2667L11 13.9001L7.89998 16.2667ZM2.99998 28.6667V18.3667C2.15553 17.4334 1.49998 16.3667 1.03331 15.1667C0.566646 13.9667 0.333313 12.689 0.333313 11.3334C0.333313 8.35564 1.36665 5.83341 3.43331 3.76675C5.49998 1.70008 8.0222 0.666748 11 0.666748C13.9778 0.666748 16.5 1.70008 18.5666 3.76675C20.6333 5.83341 21.6666 8.35564 21.6666 11.3334C21.6666 12.689 21.4333 13.9667 20.9666 15.1667C20.5 16.3667 19.8444 17.4334 19 18.3667V28.6667L11 26.0001L2.99998 28.6667ZM11 19.3334C13.2222 19.3334 15.1111 18.5556 16.6666 17.0001C18.2222 15.4445 19 13.5556 19 11.3334C19 9.11119 18.2222 7.2223 16.6666 5.66675C15.1111 4.11119 13.2222 3.33341 11 3.33341C8.77775 3.33341 6.88887 4.11119 5.33331 5.66675C3.77776 7.2223 2.99998 9.11119 2.99998 11.3334C2.99998 13.5556 3.77776 15.4445 5.33331 17.0001C6.88887 18.5556 8.77775 19.3334 11 19.3334ZM5.66664 24.7001L11 23.3334L16.3333 24.7001V20.5667C15.5555 21.0112 14.7169 21.361 13.8173 21.6161C12.9169 21.8721 11.9778 22.0001 11 22.0001C10.0222 22.0001 9.08309 21.8721 8.18264 21.6161C7.28309 21.361 6.44442 21.0112 5.66664 20.5667V24.7001Z" fill="#F9DA1B"/>
</svg>
