<svg width="32" height="32" viewBox="0 0 25 24" fill="none" xmlns="http://www.w3.org/2000/svg">
<path fill-rule="evenodd" clip-rule="evenodd" d="M12.5 0C5.87258 0 0.5 5.37258 0.5 12C0.5 18.6274 5.87258 24 12.5 24C19.1274 24 24.5 18.6274 24.5 12C24.5 5.37258 19.1274 0 12.5 0ZM16.4069 14.688C16.8496 14.9333 17.3349 15.056 17.8629 15.056C18.3909 15.056 18.8736 14.9333 19.3109 14.688C19.7483 14.4426 20.0949 14.1013 20.3509 13.664C20.6069 13.2213 20.7349 12.7253 20.7349 12.176C20.7349 11.6266 20.6069 11.1333 20.3509 10.696C20.1003 10.2586 19.7536 9.91729 19.3109 9.67196C18.8736 9.42662 18.3909 9.30396 17.8629 9.30396C17.3349 9.30396 16.8496 9.42662 16.4069 9.67196C15.9696 9.91729 15.6203 10.2586 15.3589 10.696C15.1029 11.1333 14.9749 11.6266 14.9749 12.176C14.9749 12.7253 15.1029 13.2213 15.3589 13.664C15.6203 14.1013 15.9696 14.4426 16.4069 14.688ZM18.9349 13.36C18.6683 13.6586 18.3109 13.808 17.8629 13.808C17.4096 13.808 17.0469 13.6613 16.7749 13.368C16.5083 13.0693 16.3749 12.672 16.3749 12.176C16.3749 11.6746 16.5083 11.2773 16.7749 10.984C17.0469 10.6906 17.4096 10.544 17.8629 10.544C18.3109 10.544 18.6683 10.6933 18.9349 10.992C19.2069 11.2853 19.3429 11.68 19.3429 12.176C19.3429 12.6666 19.2069 13.0613 18.9349 13.36ZM9.276 11.192C9.276 11.5173 9.20134 11.816 9.052 12.088C8.90267 12.3546 8.67334 12.5706 8.364 12.736C8.05467 12.9013 7.67067 12.984 7.212 12.984H6.364V15H4.996V9.38396H7.212C7.66 9.38396 8.03867 9.46129 8.348 9.61596C8.65734 9.77062 8.88934 9.98395 9.044 10.256C9.19867 10.528 9.276 10.84 9.276 11.192ZM7.108 11.896C7.36934 11.896 7.564 11.8346 7.692 11.712C7.82 11.5893 7.884 11.416 7.884 11.192C7.884 10.968 7.82 10.7946 7.692 10.672C7.564 10.5493 7.36934 10.488 7.108 10.488H6.364V11.896H7.108ZM12.8522 15L11.6842 12.88H11.3562V15H9.98819V9.38396H12.2842C12.7269 9.38396 13.1029 9.46129 13.4122 9.61596C13.7269 9.77062 13.9615 9.98395 14.1162 10.256C14.2709 10.5226 14.3482 10.8213 14.3482 11.152C14.3482 11.5253 14.2415 11.8586 14.0282 12.152C13.8202 12.4453 13.5109 12.6533 13.1002 12.776L14.3962 15H12.8522ZM11.3562 11.912H12.2042C12.4549 11.912 12.6415 11.8506 12.7642 11.728C12.8922 11.6053 12.9562 11.432 12.9562 11.208C12.9562 10.9946 12.8922 10.8266 12.7642 10.704C12.6415 10.5813 12.4549 10.52 12.2042 10.52H11.3562V11.912Z" fill="#F9DA1B"/>
</svg>
