<?xml version="1.0" standalone="no"?>
<!DOCTYPE svg PUBLIC "-//W3C//DTD SVG 20010904//EN"
 "http://www.w3.org/TR/2001/REC-SVG-20010904/DTD/svg10.dtd">
<svg version="1.0" xmlns="http://www.w3.org/2000/svg"
 width="1080.000000pt" height="1080.000000pt" viewBox="0 0 1080.000000 1080.000000"
 preserveAspectRatio="xMidYMid meet">

<g transform="translate(0.000000,1080.000000) scale(0.100000,-0.100000)"
fill="#000000" stroke="none">
<path d="M2177 7639 c-51 -27 -86 -33 -192 -30 l-89 1 -63 -62 c-35 -34 -67
-76 -73 -93 -10 -32 -21 -162 -14 -179 3 -7 24 -10 53 -8 46 4 50 2 67 -27 16
-27 23 -31 49 -26 93 18 211 100 266 185 16 24 17 24 37 7 26 -24 115 -57 152
-57 29 0 30 -2 30 -47 0 -69 11 -45 20 44 9 87 -8 195 -36 239 -24 35 -94 74
-135 74 -19 -1 -51 -10 -72 -21z"/>
<path d="M1893 7633 c9 -2 23 -2 30 0 6 3 -1 5 -18 5 -16 0 -22 -2 -12 -5z"/>
<path d="M1340 7444 c-342 -53 -660 -163 -776 -268 -97 -86 -137 -205 -116
-341 36 -232 175 -407 415 -523 123 -60 261 -108 371 -131 54 -11 99 -21 101
-23 2 -2 -3 -84 -11 -183 -7 -99 -16 -243 -19 -320 -3 -77 -9 -198 -15 -270
-23 -324 -23 -333 -3 -339 10 -3 126 -12 258 -21 132 -8 272 -17 310 -20 195
-15 768 -36 823 -30 l62 7 0 97 c0 53 -6 173 -14 266 -8 94 -18 243 -21 333
l-7 163 63 -66 c103 -108 223 -178 359 -211 75 -19 228 -18 303 2 150 39 290
138 386 273 l31 44 -22 38 c-33 59 -103 133 -159 169 -44 29 -54 32 -71 21
-154 -96 -280 -108 -408 -40 -79 43 -111 75 -202 207 -173 248 -258 353 -340
418 -105 82 -230 123 -379 124 l-76 0 -12 -39 c-10 -37 -69 -101 -91 -101 -6
0 -10 -85 -10 -220 0 -213 -1 -220 -22 -240 -12 -11 -30 -20 -40 -20 -17 0
-18 15 -18 240 0 213 -2 240 -16 240 -25 0 -83 65 -90 100 l-7 32 -111 -9
c-173 -13 -455 -10 -498 5 -45 16 -88 64 -88 98 0 58 143 151 330 215 52 17
99 35 103 39 4 4 1 61 -8 126 -26 194 -14 174 -103 173 -42 -1 -115 -7 -162
-15z m-695 -345 c-91 -101 -114 -237 -60 -357 15 -34 34 -67 41 -73 8 -6 14
-16 14 -22 0 -21 -38 25 -66 81 -24 49 -28 69 -29 142 0 71 4 94 26 140 27 58
83 130 101 130 6 0 -6 -19 -27 -41z m2301 -1328 c56 -49 116 -77 206 -98 63
-14 78 -14 147 -1 42 9 94 24 116 34 22 10 45 20 50 22 6 2 3 -3 -5 -12 -24
-25 -128 -58 -201 -64 -116 -8 -242 35 -327 114 -59 54 -46 58 14 5z"/>
<path d="M2322 7318 c-26 -26 0 -77 33 -64 20 7 20 62 -1 70 -20 8 -18 8 -32
-6z"/>
<path d="M2124 7286 c-11 -29 0 -51 26 -51 21 0 25 5 25 30 0 24 -5 31 -23 33
-13 2 -24 -3 -28 -12z"/>
<path d="M2257 7230 c17 -29 16 -30 -2 -45 -19 -15 -19 -16 -1 -13 32 5 42 32
23 62 -24 36 -42 33 -20 -4z"/>
<path d="M1765 7219 c-4 -5 1 -9 9 -9 19 0 20 -13 6 -41 -6 -11 -7 -19 -1 -19
5 0 11 7 15 15 9 24 34 17 44 -12 10 -26 10 -27 11 -5 1 13 -3 32 -9 42 -11
21 -67 43 -75 29z"/>
<path d="M1800 7080 c0 -8 13 -76 26 -138 3 -17 10 -22 27 -20 21 3 22 7 19
78 -2 41 -5 75 -5 76 -12 8 -67 11 -67 4z"/>
<path d="M7942 6520 c0 -14 2 -19 5 -12 2 6 2 18 0 25 -3 6 -5 1 -5 -13z"/>
<path d="M7818 6523 c6 -2 18 -2 25 0 6 3 1 5 -13 5 -14 0 -19 -2 -12 -5z"/>
<path d="M7688 6503 c6 -2 18 -2 25 0 6 3 1 5 -13 5 -14 0 -19 -2 -12 -5z"/>
<path d="M3834 6473 c18 -21 17 -25 -1 -112 -11 -50 -16 -91 -13 -91 4 0 15
41 24 92 l17 91 -23 21 -22 21 18 -22z"/>
<path d="M7388 6453 c7 -3 16 -2 19 1 4 3 -2 6 -13 5 -11 0 -14 -3 -6 -6z"/>
<path d="M4074 6442 c3 -5 -33 -37 -79 -71 -47 -35 -85 -65 -85 -67 0 -8 18 5
103 69 42 32 75 63 71 68 -3 5 -7 9 -10 9 -3 0 -3 -4 0 -8z"/>
<path d="M7248 6433 c6 -2 18 -2 25 0 6 3 1 5 -13 5 -14 0 -19 -2 -12 -5z"/>
<path d="M7128 6413 c7 -3 16 -2 19 1 4 3 -2 6 -13 5 -11 0 -14 -3 -6 -6z"/>
<path d="M4065 6315 c-49 -24 -85 -44 -79 -44 6 -1 53 19 105 44 52 24 87 44
79 44 -8 -1 -55 -20 -105 -44z"/>
<path d="M4093 6245 c-51 -25 -93 -47 -93 -50 0 -3 15 1 33 9 128 56 190 89
160 85 -5 0 -50 -20 -100 -44z"/>
<path d="M8380 6236 c0 -2 8 -10 18 -17 15 -13 16 -12 3 4 -13 16 -21 21 -21
13z"/>
<path d="M6831 6204 c0 -11 3 -14 6 -6 3 7 2 16 -1 19 -3 4 -6 -2 -5 -13z"/>
<path d="M8358 6213 c7 -3 16 -2 19 1 4 3 -2 6 -13 5 -11 0 -14 -3 -6 -6z"/>
<path d="M8298 6203 c7 -3 16 -2 19 1 4 3 -2 6 -13 5 -11 0 -14 -3 -6 -6z"/>
<path d="M8168 6183 c6 -2 18 -2 25 0 6 3 1 5 -13 5 -14 0 -19 -2 -12 -5z"/>
<path d="M8019 6167 c5 -5 19 -7 32 -5 20 3 19 5 -9 9 -20 3 -29 2 -23 -4z"/>
<path d="M8421 6084 c0 -11 3 -14 6 -6 3 7 2 16 -1 19 -3 4 -6 -2 -5 -13z"/>
<path d="M6851 6074 c0 -11 3 -14 6 -6 3 7 2 16 -1 19 -3 4 -6 -2 -5 -13z"/>
<path d="M8441 5954 c0 -11 3 -14 6 -6 3 7 2 16 -1 19 -3 4 -6 -2 -5 -13z"/>
<path d="M8461 5824 c0 -11 3 -14 6 -6 3 7 2 16 -1 19 -3 4 -6 -2 -5 -13z"/>
<path d="M6901 5764 c0 -11 3 -14 6 -6 3 7 2 16 -1 19 -3 4 -6 -2 -5 -13z"/>
<path d="M6921 5634 c0 -11 3 -14 6 -6 3 7 2 16 -1 19 -3 4 -6 -2 -5 -13z"/>
<path d="M8511 5514 c0 -11 3 -14 6 -6 3 7 2 16 -1 19 -3 4 -6 -2 -5 -13z"/>
<path d="M7609 5493 c-13 -16 -12 -17 4 -4 9 7 17 15 17 17 0 8 -8 3 -21 -13z"/>
<path d="M7970 5424 c-17 -9 -20 -14 -9 -14 9 0 22 7 29 15 15 18 13 18 -20
-1z"/>
<path d="M7208 5393 c7 -3 16 -2 19 1 4 3 -2 6 -13 5 -11 0 -14 -3 -6 -6z"/>
<path d="M7718 5393 c7 -3 16 -2 19 1 4 3 -2 6 -13 5 -11 0 -14 -3 -6 -6z"/>
<path d="M7318 5373 c7 -3 16 -2 19 1 4 3 -2 6 -13 5 -11 0 -14 -3 -6 -6z"/>
<path d="M8532 5300 c0 -14 2 -19 5 -12 2 6 2 18 0 25 -3 6 -5 1 -5 -13z"/>
<path d="M7238 5303 c7 -3 16 -2 19 1 4 3 -2 6 -13 5 -11 0 -14 -3 -6 -6z"/>
<path d="M7358 5283 c7 -3 16 -2 19 1 4 3 -2 6 -13 5 -11 0 -14 -3 -6 -6z"/>
<path d="M8551 5164 c0 -11 3 -14 6 -6 3 7 2 16 -1 19 -3 4 -6 -2 -5 -13z"/>
<path d="M6991 5104 c0 -11 3 -14 6 -6 3 7 2 16 -1 19 -3 4 -6 -2 -5 -13z"/>
<path d="M8581 4984 c0 -11 3 -14 6 -6 3 7 2 16 -1 19 -3 4 -6 -2 -5 -13z"/>
<path d="M7011 4974 c0 -11 3 -14 6 -6 3 7 2 16 -1 19 -3 4 -6 -2 -5 -13z"/>
<path d="M7061 4664 c0 -11 3 -14 6 -6 3 7 2 16 -1 19 -3 4 -6 -2 -5 -13z"/>
<path d="M2160 4633 c0 -16 -5 -73 -10 -128 -6 -55 -15 -149 -20 -210 -6 -60
-21 -231 -35 -380 -14 -148 -30 -322 -36 -385 -5 -63 -14 -160 -19 -215 -10
-112 -12 -150 -6 -144 4 4 14 98 37 329 5 58 16 173 24 255 8 83 15 157 16
165 1 29 20 -36 104 -350 l85 -317 10 -194 c10 -210 39 -955 43 -1109 l2 -95
279 0 280 0 6 25 c4 14 10 40 13 58 l7 32 -185 0 -184 0 -5 33 c-3 17 -10 219
-17 447 -6 228 -14 514 -18 635 l-7 220 -48 130 c-26 72 -111 289 -188 484
l-141 355 12 140 c7 78 15 165 18 194 4 36 2 52 -6 52 -6 0 -11 -12 -11 -27z"/>
<path d="M7082 4530 c0 -14 2 -19 5 -12 2 6 2 18 0 25 -3 6 -5 1 -5 -13z"/>
<path d="M7101 4404 c0 -11 3 -14 6 -6 3 7 2 16 -1 19 -3 4 -6 -2 -5 -13z"/>
<path d="M7518 4293 c7 -3 16 -2 19 1 4 3 -2 6 -13 5 -11 0 -14 -3 -6 -6z"/>
<path d="M7338 4263 c7 -3 16 -2 19 1 4 3 -2 6 -13 5 -11 0 -14 -3 -6 -6z"/>
<path d="M7183 4243 c9 -2 25 -2 35 0 9 3 1 5 -18 5 -19 0 -27 -2 -17 -5z"/>
<path d="M2995 3960 c9 -14 4495 -14 4495 0 0 7 -757 10 -2251 10 -1497 0
-2248 -3 -2244 -10z"/>
<path d="M6670 3263 c-1 -42 104 -819 111 -827 19 -21 19 9 0 150 -11 82 -34
257 -51 389 -17 132 -33 255 -37 273 -6 34 -23 45 -23 15z"/>
<path d="M3859 2017 c-41 -28 -61 -81 -57 -154 4 -76 22 -71 26 7 3 93 9 108
45 130 31 20 58 20 1434 20 924 0 1404 3 1408 10 4 7 -468 10 -1408 10 l-1414
0 -34 -23z"/>
<path d="M1085 1894 c-5 -34 -3 -49 7 -55 7 -5 125 -9 261 -9 l248 0 13 33 c8
17 17 42 20 55 l7 22 -274 0 -275 0 -7 -46z"/>
</g>
</svg>
