<svg width="165" height="200" viewBox="0 0 165 200" fill="none" xmlns="http://www.w3.org/2000/svg">
<rect width="165" height="200" fill="#FAFAFA"/>
<g clip-path="url(#clip0_29_32)">
<path d="M102.254 40H40.0636C38.3322 40 36.9286 41.4036 36.9286 44.1271V157.857C36.9286 158.596 38.3322 160 40.0636 160H125.936C127.668 160 129.071 158.596 129.071 157.857V67.81C129.071 66.3186 128.872 65.8386 128.521 65.485L103.586 40.5507C103.233 40.1993 102.753 40 102.254 40Z" fill="#E9E9E0"/>
<path d="M103.357 40.3235V65.7143H128.748L103.357 40.3235Z" fill="#D9D7CA"/>
<path d="M64.8157 111.409C64.07 111.409 63.3543 111.166 62.7436 110.71C60.5129 109.036 60.2128 107.174 60.3543 105.906C60.7443 102.417 65.0578 98.7657 73.1793 95.0457C76.4021 87.9829 79.4686 79.2807 81.2964 72.01C79.1578 67.3557 77.0793 61.3171 78.5943 57.775C79.1257 56.5343 79.7878 55.5829 81.0243 55.1714C81.5128 55.0086 82.7471 54.8029 83.2014 54.8029C84.2814 54.8029 85.2307 56.1936 85.9036 57.0507C86.5357 57.8564 87.9693 59.5643 85.1043 71.6264C87.9928 77.5921 92.0857 83.6693 96.0071 87.8307C98.8164 87.3229 101.234 87.0636 103.203 87.0636C106.559 87.0636 108.592 87.8457 109.421 89.4571C110.107 90.79 109.826 92.3479 108.586 94.0857C107.392 95.755 105.746 96.6379 103.829 96.6379C101.223 96.6379 98.1886 94.9921 94.805 91.7414C88.7257 93.0121 81.6264 95.2793 75.8878 97.7886C74.0964 101.59 72.38 104.652 70.7814 106.898C68.585 109.973 66.6907 111.409 64.8157 111.409ZM70.52 100.424C65.9407 102.998 64.0743 105.113 63.9393 106.304C63.9178 106.501 63.86 107.02 64.8628 107.787C65.1821 107.686 67.0464 106.836 70.52 100.424ZM99.7421 90.9057C101.489 92.2493 101.915 92.9286 103.057 92.9286C103.559 92.9286 104.988 92.9071 105.65 91.9836C105.969 91.5357 106.094 91.2486 106.143 91.0943C105.879 90.955 105.53 90.6721 103.625 90.6721C102.543 90.6743 101.182 90.7214 99.7421 90.9057ZM83.735 76.8014C82.2028 82.1029 80.18 87.8264 78.005 93.01C82.4836 91.2721 87.3521 89.755 91.925 88.6814C89.0321 85.3214 86.1414 81.1257 83.735 76.8014ZM82.4343 58.6686C82.2243 58.7393 79.5843 62.4336 82.64 65.56C84.6736 61.0279 82.5264 58.6386 82.4343 58.6686Z" fill="#CC4B4C"/>
<path d="M125.936 160H40.0636C38.3322 160 36.9286 158.596 36.9286 156.865V123.571H129.071V156.865C129.071 158.596 127.668 160 125.936 160Z" fill="#CC4B4C"/>
<path d="M60.2536 153.571H56.7372V131.98H62.9472C63.8643 131.98 64.7729 132.126 65.6708 132.419C66.5686 132.713 67.3743 133.152 68.0879 133.737C68.8015 134.322 69.3779 135.031 69.8172 135.861C70.2565 136.69 70.4772 137.622 70.4772 138.659C70.4772 139.754 70.2908 140.744 69.92 141.634C69.5493 142.523 69.0308 143.271 68.3665 143.875C67.7022 144.479 66.9008 144.949 65.9643 145.281C65.0279 145.613 63.9908 145.778 62.8593 145.778H60.2515L60.2536 153.571ZM60.2536 134.646V143.2H63.4765C63.905 143.2 64.3293 143.127 64.7515 142.979C65.1715 142.834 65.5572 142.594 65.9086 142.261C66.26 141.929 66.5429 141.466 66.7572 140.871C66.9715 140.275 67.0786 139.538 67.0786 138.659C67.0786 138.308 67.0293 137.901 66.9329 137.444C66.8343 136.986 66.635 136.546 66.3329 136.126C66.0286 135.706 65.6043 135.355 65.0579 135.072C64.5115 134.789 63.7872 134.648 62.8893 134.648L60.2536 134.646Z" fill="white"/>
<path d="M92.0407 142.176C92.0407 143.952 91.85 145.471 91.4686 146.731C91.0872 147.991 90.605 149.046 90.0179 149.896C89.4307 150.747 88.7729 151.416 88.04 151.904C87.3072 152.393 86.6 152.757 85.9164 153.004C85.2329 153.248 84.6072 153.404 84.0414 153.473C83.4757 153.537 83.0557 153.571 82.7814 153.571H74.6086V131.98H81.1122C82.9293 131.98 84.5257 132.269 85.9014 132.844C87.2772 133.418 88.4214 134.187 89.33 135.143C90.2386 136.099 90.9157 137.189 91.3657 138.409C91.8157 139.63 92.0407 140.886 92.0407 142.176ZM81.6114 150.994C83.9943 150.994 85.7129 150.233 86.7672 148.709C87.8214 147.186 88.3486 144.979 88.3486 142.088C88.3486 141.19 88.2414 140.301 88.0272 139.422C87.8107 138.544 87.3972 137.749 86.7822 137.035C86.1672 136.321 85.3314 135.745 84.2772 135.306C83.2229 134.866 81.8557 134.646 80.1757 134.646H78.125V150.994H81.6114Z" fill="white"/>
<path d="M100.713 134.646V141.443H109.736V143.845H100.713V153.571H97.1386V131.98H110.643V134.646H100.713Z" fill="white"/>
</g>
<defs>
<clipPath id="clip0_29_32">
<rect width="120" height="120" fill="white" transform="translate(23 40)"/>
</clipPath>
</defs>
</svg>
