<svg width="249" height="298" viewBox="0 0 249 298" fill="none" xmlns="http://www.w3.org/2000/svg">
<g opacity="0.9">
<path d="M-23.5135 -27.0537V1.19969L-67.1429 44.7489M-23.5135 -27.0537L-130.189 -133.529M-23.5135 -27.0537L-3.83049 -27.0541L16.2009 -47.0427M73.1783 218.114V159.382L16.7203 103.027M16.7203 103.027V18.5957L27.6229 7.71297H58.0565M16.7203 103.027L-0.194213 119.905V297.159M-84.9764 24.8246L-24.3753 85.3151M-24.3753 85.3151V139.754M-24.3753 85.3151L-4.21053 65.1872H16.7205L27.452 53.571L42.8398 53.5707M-24.3753 139.754L99.1075 263.012M-24.3753 139.754L-100.579 215.819M42.8398 -7.47638L73.1783 22.8068V91.1195M42.8398 -7.47638L42.8398 -39.5299L-122.055 -204.124M42.8398 -7.47638L2.46014 -7.4761M73.1783 91.1195L112.867 130.736M73.1783 91.1195L46.0263 91.119M112.867 130.736H131.759L248.114 246.88M112.867 130.736L112.868 158.674L208.679 254.31M46.0263 91.119L25.4057 111.696M46.0263 91.119L91.9238 136.939V215.818M-4.43225 65.4083L-24.6284 45.249V19.7084L16.7205 -21.565V-46.5238L-99.8635 -162.889M-0.194182 163.891L-65.9077 229.484M42.8398 7.84559V53.5707M42.8398 53.5707L52.7288 63.448V91.1197" stroke="url(#paint0_radial_1188_2154)" stroke-width="1.5202" stroke-miterlimit="10"/>
</g>
<defs>
<radialGradient id="paint0_radial_1188_2154" cx="0" cy="0" r="1" gradientUnits="userSpaceOnUse" gradientTransform="translate(58.9625 46.5173) rotate(166.963) scale(262.799 198.327)">
<stop offset="0.055" stop-color="#434343"/>
<stop offset="0.635" stop-color="#323232" stop-opacity="0"/>
</radialGradient>
</defs>
</svg>
