<svg width="159" height="122" viewBox="0 0 159 122" fill="none" xmlns="http://www.w3.org/2000/svg">
<g opacity="0.7">
<path opacity="0.8" d="M65.4192 49.4715C65.4192 48.9361 65.6035 48.4127 65.9489 47.9676C66.2942 47.5224 66.7852 47.1755 67.3595 46.9706C67.9338 46.7657 68.5658 46.7119 69.1755 46.8164C69.7852 46.9208 70.3453 47.1786 70.7849 47.5572C71.2245 47.9358 71.5238 48.4183 71.6451 48.9435C71.7664 49.4686 71.7041 50.0127 71.4662 50.5074C71.2283 51.002 70.8255 51.4249 70.3086 51.7223C69.7917 52.0198 69.1839 52.1786 68.5623 52.1786C67.7287 52.1786 66.9292 51.8934 66.3398 51.3858C65.7503 50.8781 65.4192 50.1894 65.4192 49.4715Z" fill="#7E7E7E"/>
<path opacity="0.8" d="M36.4395 49.4718C36.4351 48.9309 36.6176 48.4013 36.9638 47.95C37.3099 47.4988 37.8039 47.1463 38.3833 46.9376C38.9626 46.7289 39.6008 46.6732 40.2169 46.7778C40.833 46.8823 41.3992 47.1425 41.8432 47.5249C42.2872 47.9073 42.5892 48.3948 42.7106 48.9255C42.832 49.4561 42.7675 50.0059 42.5251 50.5048C42.2828 51.0038 41.8735 51.4292 41.3496 51.7273C40.8256 52.0254 40.2105 52.1827 39.5826 52.1789C38.749 52.1789 37.9496 51.8937 37.3601 51.386C36.7706 50.8784 36.4395 50.1897 36.4395 49.4718Z" fill="#7E7E7E"/>
<path opacity="0.8" d="M7.2607 49.4718C7.25628 48.9318 7.43817 48.4028 7.7833 47.9519C8.12842 47.5011 8.62125 47.1488 9.19925 46.9395C9.77725 46.7302 10.4144 46.6733 11.0299 46.7764C11.6454 46.8794 12.2116 47.1376 12.6565 47.5181C13.1014 47.8986 13.4051 48.3842 13.529 48.9135C13.653 49.4429 13.5916 49.9922 13.3527 50.4915C13.1138 50.9908 12.7081 51.4175 12.1871 51.7179C11.6661 52.0183 11.0532 52.1789 10.4262 52.1789C9.59055 52.1789 8.78868 51.8944 8.19569 51.3872C7.60269 50.8801 7.26658 50.1915 7.2607 49.4718Z" fill="#7E7E7E"/>
<path opacity="0.8" d="M65.4193 72.5109C65.4237 71.9763 65.6118 71.4548 65.9598 71.0122C66.3079 70.5695 66.8003 70.2256 67.375 70.0236C67.9497 69.8217 68.5809 69.7708 69.1892 69.8774C69.7974 69.984 70.3554 70.2433 70.7927 70.6226C71.2301 71.002 71.5272 71.4843 71.6466 72.0089C71.7661 72.5335 71.7026 73.0769 71.4641 73.5705C71.2255 74.064 70.8227 74.4858 70.3063 74.7824C69.7899 75.079 69.183 75.2373 68.5623 75.2373C68.1477 75.2373 67.7372 75.1666 67.3544 75.0294C66.9716 74.8921 66.6241 74.691 66.3319 74.4376C66.0398 74.1842 65.8087 73.8833 65.6521 73.5527C65.4954 73.222 65.4163 72.868 65.4193 72.5109Z" fill="#7E7E7E"/>
<path opacity="0.8" d="M36.4401 72.5107C36.5066 71.8296 36.8678 71.1949 37.452 70.7323C38.0362 70.2697 38.8008 70.0131 39.5943 70.0131C40.3879 70.0131 41.1527 70.2697 41.7369 70.7323C42.321 71.1949 42.6822 71.8296 42.7487 72.5107C42.7854 72.8866 42.7311 73.2651 42.5893 73.622C42.4474 73.979 42.2211 74.3066 41.9246 74.5843C41.6281 74.8621 41.268 75.084 40.8669 75.2356C40.4658 75.3873 40.0324 75.4655 39.5943 75.4655C39.1563 75.4655 38.723 75.3873 38.3219 75.2356C37.9208 75.084 37.5607 74.8621 37.2642 74.5843C36.9677 74.3066 36.7413 73.979 36.5994 73.622C36.4576 73.2651 36.4034 72.8866 36.4401 72.5107Z" fill="#7E7E7E"/>
<path opacity="0.8" d="M7.26062 72.5105C7.26062 71.9713 7.44628 71.4442 7.7941 70.9958C8.14193 70.5475 8.63628 70.1982 9.21469 69.9918C9.79309 69.7855 10.4297 69.7315 11.0437 69.8367C11.6577 69.9419 12.2217 70.2014 12.6644 70.5827C13.1071 70.9639 13.4086 71.4499 13.5307 71.9788C13.6529 72.5076 13.5902 73.0558 13.3506 73.5539C13.111 74.0521 12.7053 74.4777 12.1847 74.7773C11.6641 75.0769 11.0522 75.2369 10.4261 75.2369C9.58662 75.2369 8.78149 74.9497 8.18786 74.4384C7.59422 73.9271 7.26062 73.2336 7.26062 72.5105Z" fill="#7E7E7E"/>
<path opacity="0.8" d="M65.4193 95.55C65.4237 95.0154 65.6118 94.4939 65.9598 94.0512C66.3079 93.6086 66.8003 93.2646 67.375 93.0627C67.9497 92.8607 68.5809 92.8098 69.1892 92.9164C69.7974 93.023 70.3554 93.2824 70.7927 93.6617C71.2301 94.0411 71.5272 94.5234 71.6466 95.048C71.7661 95.5726 71.7026 96.116 71.4641 96.6095C71.2255 97.1031 70.8227 97.5248 70.3063 97.8214C69.7899 98.118 69.183 98.2763 68.5623 98.2763C68.1477 98.2763 67.7372 98.2057 67.3544 98.0685C66.9716 97.9312 66.6241 97.7301 66.3319 97.4767C66.0398 97.2233 65.8087 96.9224 65.6521 96.5917C65.4954 96.2611 65.4163 95.9071 65.4193 95.55Z" fill="#7E7E7E"/>
<path opacity="0.8" d="M65.4192 3.56673C65.4192 3.03132 65.6035 2.50788 65.9489 2.0627C66.2942 1.61753 66.7852 1.27061 67.3595 1.06572C67.9338 0.860826 68.5658 0.807171 69.1755 0.911624C69.7852 1.01608 70.3453 1.27386 70.7849 1.65245C71.2245 2.03104 71.5238 2.51347 71.6451 3.03859C71.7664 3.56371 71.7041 4.10797 71.4662 4.60262C71.2283 5.09727 70.8255 5.5201 70.3086 5.81756C69.7917 6.11502 69.1839 6.27375 68.5623 6.27375C67.7305 6.26872 66.9345 5.98186 66.3463 5.47527C65.7581 4.96868 65.425 4.28314 65.4192 3.56673Z" fill="#7E7E7E"/>
<path opacity="0.8" d="M36.4395 3.56701C36.4351 3.02619 36.6176 2.49643 36.9638 2.04517C37.3099 1.5939 37.8039 1.24144 38.3833 1.03272C38.9626 0.823995 39.6008 0.768416 40.2169 0.872997C40.833 0.977578 41.3992 1.2376 41.8432 1.62003C42.2872 2.00246 42.5892 2.49008 42.7106 3.02071C42.832 3.55133 42.7675 4.10103 42.5251 4.59997C42.2828 5.0989 41.8735 5.52442 41.3496 5.82253C40.8256 6.12063 40.2105 6.27782 39.5826 6.27403C38.7508 6.269 37.9548 5.98214 37.3666 5.47555C36.7784 4.96896 36.4454 4.28341 36.4395 3.56701Z" fill="#7E7E7E"/>
<path opacity="0.8" d="M7.26126 3.56667C7.22453 3.19072 7.27888 2.81228 7.42072 2.45532C7.56256 2.09836 7.78888 1.77065 8.08536 1.49291C8.38185 1.21517 8.74197 0.99339 9.14308 0.841727C9.54418 0.690064 9.97757 0.611816 10.4156 0.611816C10.8537 0.611816 11.2869 0.690064 11.688 0.841727C12.0891 0.99339 12.4494 1.21517 12.7459 1.49291C13.0424 1.77065 13.2687 2.09836 13.4105 2.45532C13.5524 2.81228 13.6066 3.19072 13.5699 3.56667C13.5033 4.24775 13.1422 4.88244 12.558 5.34503C11.9738 5.80762 11.2092 6.06429 10.4156 6.06429C9.62205 6.06429 8.85746 5.80762 8.27326 5.34503C7.68906 4.88244 7.3278 4.24775 7.26126 3.56667Z" fill="#7E7E7E"/>
<path opacity="0.8" d="M65.4192 26.548C65.4192 26.0126 65.6035 25.489 65.9489 25.0438C66.2942 24.5986 66.7852 24.2517 67.3595 24.0468C67.9338 23.8419 68.5658 23.7884 69.1755 23.8929C69.7852 23.9973 70.3453 24.2551 70.7849 24.6337C71.2245 25.0123 71.5238 25.4946 71.6451 26.0197C71.7664 26.5448 71.7041 27.0892 71.4662 27.5838C71.2283 28.0785 70.8255 28.5013 70.3086 28.7988C69.7917 29.0962 69.1839 29.2549 68.5623 29.2549C67.7287 29.2549 66.9292 28.9697 66.3398 28.462C65.7503 27.9543 65.4192 27.2659 65.4192 26.548Z" fill="#7E7E7E"/>
<path opacity="0.8" d="M36.4395 26.5482C36.4351 26.0074 36.6176 25.4775 36.9638 25.0263C37.3099 24.575 37.8039 24.2225 38.3833 24.0138C38.9626 23.8051 39.6008 23.7496 40.2169 23.8542C40.833 23.9588 41.3992 24.2187 41.8432 24.6011C42.2872 24.9836 42.5892 25.4711 42.7106 26.0017C42.832 26.5323 42.7675 27.0821 42.5251 27.5811C42.2828 28.08 41.8735 28.5057 41.3496 28.8038C40.8256 29.1019 40.2105 29.2589 39.5826 29.2551C38.749 29.2551 37.9496 28.97 37.3601 28.4623C36.7706 27.9546 36.4395 27.2662 36.4395 26.5482Z" fill="#7E7E7E"/>
<path opacity="0.8" d="M7.2607 26.5482C7.25628 26.0082 7.43817 25.4793 7.7833 25.0284C8.12842 24.5775 8.62125 24.225 9.19925 24.0157C9.77725 23.8064 10.4144 23.7498 11.0299 23.8528C11.6454 23.9558 12.2116 24.2139 12.6565 24.5944C13.1014 24.9749 13.4051 25.4606 13.529 25.99C13.653 26.5194 13.5916 27.0685 13.3527 27.5677C13.1138 28.067 12.7081 28.494 12.1871 28.7944C11.6661 29.0948 11.0532 29.2551 10.4262 29.2551C9.59055 29.2552 8.78868 28.9706 8.19569 28.4635C7.60269 27.9563 7.26658 27.268 7.2607 26.5482Z" fill="#7E7E7E"/>
<path opacity="0.8" d="M36.4401 95.5496C36.5066 94.8685 36.8678 94.2339 37.452 93.7713C38.0362 93.3087 38.8008 93.052 39.5943 93.052C40.3879 93.052 41.1527 93.3087 41.7369 93.7713C42.321 94.2339 42.6822 94.8685 42.7487 95.5496C42.7854 95.9256 42.7311 96.304 42.5893 96.661C42.4474 97.0179 42.2211 97.3455 41.9246 97.6233C41.6281 97.901 41.268 98.1229 40.8669 98.2746C40.4658 98.4262 40.0324 98.5045 39.5943 98.5045C39.1563 98.5045 38.723 98.4262 38.3219 98.2746C37.9208 98.1229 37.5607 97.901 37.2642 97.6233C36.9677 97.3455 36.7413 97.0179 36.5994 96.661C36.4576 96.304 36.4034 95.9256 36.4401 95.5496Z" fill="#7E7E7E"/>
<path opacity="0.8" d="M7.26062 95.5496C7.26062 95.0104 7.44628 94.4832 7.7941 94.0349C8.14193 93.5866 8.63628 93.2372 9.21469 93.0309C9.79309 92.8246 10.4297 92.7706 11.0437 92.8757C11.6577 92.9809 12.2217 93.2405 12.6644 93.6217C13.1071 94.003 13.4086 94.489 13.5307 95.0178C13.6529 95.5467 13.5902 96.0948 13.3506 96.593C13.111 97.0912 12.7053 97.5168 12.1847 97.8164C11.6641 98.1159 11.0522 98.276 10.4261 98.276C10.0105 98.276 9.59873 98.2053 9.21469 98.0683C8.83064 97.9313 8.48179 97.7306 8.18786 97.4775C7.89392 97.2243 7.66066 96.9238 7.50158 96.593C7.3425 96.2622 7.26062 95.9076 7.26062 95.5496Z" fill="#7E7E7E"/>
<path opacity="0.8" d="M65.4193 118.454C65.4237 117.919 65.6118 117.398 65.9598 116.955C66.3079 116.512 66.8003 116.168 67.375 115.966C67.9497 115.765 68.5809 115.714 69.1892 115.82C69.7974 115.927 70.3554 116.186 70.7927 116.566C71.2301 116.945 71.5272 117.427 71.6466 117.952C71.7661 118.476 71.7026 119.02 71.4641 119.513C71.2255 120.007 70.8227 120.428 70.3063 120.725C69.7899 121.022 69.183 121.18 68.5623 121.18C68.1477 121.18 67.7372 121.109 67.3544 120.972C66.9716 120.835 66.6241 120.634 66.3319 120.38C66.0398 120.127 65.8087 119.826 65.6521 119.496C65.4954 119.165 65.4163 118.811 65.4193 118.454Z" fill="#7E7E7E"/>
<path opacity="0.8" d="M36.4395 118.454C36.4395 117.914 36.6258 117.386 36.9746 116.937C37.3235 116.488 37.8191 116.139 38.3988 115.933C38.9785 115.728 39.6161 115.675 40.2308 115.782C40.8454 115.888 41.4093 116.15 41.8511 116.533C42.2929 116.916 42.5926 117.404 42.7122 117.934C42.8318 118.464 42.7659 119.013 42.5229 119.511C42.2799 120.008 41.8707 120.433 41.3473 120.73C40.8238 121.027 40.2096 121.184 39.5826 121.18C39.168 121.18 38.7575 121.11 38.3747 120.972C37.9919 120.835 37.6444 120.634 37.3522 120.381C37.06 120.127 36.829 119.826 36.6723 119.496C36.5157 119.165 36.4366 118.811 36.4395 118.454Z" fill="#7E7E7E"/>
<path opacity="0.8" d="M7.26062 118.454C7.26062 117.915 7.44628 117.388 7.7941 116.94C8.14193 116.491 8.63628 116.142 9.21469 115.935C9.79309 115.729 10.4297 115.675 11.0437 115.78C11.6577 115.885 12.2217 116.145 12.6644 116.526C13.1071 116.908 13.4086 117.393 13.5307 117.922C13.6529 118.451 13.5902 118.999 13.3506 119.497C13.111 119.996 12.7053 120.421 12.1847 120.721C11.6641 121.021 11.0522 121.18 10.4261 121.18C9.58662 121.18 8.78149 120.893 8.18786 120.382C7.59422 119.871 7.26062 119.177 7.26062 118.454Z" fill="#7E7E7E"/>
<path opacity="0.8" d="M152.693 49.4715C152.693 48.9361 152.877 48.4127 153.223 47.9676C153.568 47.5224 154.059 47.1755 154.633 46.9706C155.208 46.7657 155.84 46.7119 156.449 46.8164C157.059 46.9208 157.619 47.1786 158.059 47.5572C158.498 47.9358 158.798 48.4183 158.919 48.9435C159.04 49.4686 158.978 50.0127 158.74 50.5074C158.502 51.002 158.099 51.4249 157.583 51.7223C157.066 52.0198 156.458 52.1786 155.836 52.1786C155.003 52.1786 154.203 51.8934 153.614 51.3858C153.024 50.8781 152.693 50.1894 152.693 49.4715Z" fill="#7E7E7E"/>
<path opacity="0.8" d="M123.602 49.4718C123.597 48.9309 123.78 48.4013 124.126 47.95C124.472 47.4988 124.966 47.1463 125.546 46.9376C126.125 46.7289 126.763 46.6732 127.379 46.7778C127.995 46.8823 128.561 47.1425 129.005 47.5249C129.449 47.9073 129.751 48.3948 129.873 48.9255C129.994 49.4561 129.93 50.0059 129.687 50.5048C129.445 51.0038 129.036 51.4292 128.512 51.7273C127.988 52.0254 127.373 52.1827 126.745 52.1789C125.911 52.1789 125.112 51.8937 124.522 51.386C123.933 50.8784 123.602 50.1897 123.602 49.4718Z" fill="#7E7E7E"/>
<path opacity="0.8" d="M94.5118 49.4718C94.5074 48.9318 94.6893 48.4028 95.0344 47.9519C95.3795 47.5011 95.8724 47.1488 96.4504 46.9395C97.0284 46.7302 97.6655 46.6733 98.281 46.7764C98.8965 46.8794 99.4627 47.1376 99.9076 47.5181C100.353 47.8986 100.656 48.3842 100.78 48.9135C100.904 49.4429 100.843 49.9922 100.604 50.4915C100.365 50.9908 99.9592 51.4175 99.4382 51.7179C98.9172 52.0183 98.3042 52.1789 97.6772 52.1789C96.8415 52.1789 96.0398 51.8944 95.4468 51.3872C94.8538 50.8801 94.5177 50.1915 94.5118 49.4718Z" fill="#7E7E7E"/>
<path opacity="0.8" d="M152.691 72.5109C152.696 71.9763 152.884 71.4548 153.232 71.0122C153.58 70.5695 154.072 70.2256 154.647 70.0236C155.222 69.8217 155.853 69.7708 156.461 69.8774C157.069 69.984 157.627 70.2433 158.065 70.6226C158.502 71.002 158.799 71.4843 158.919 72.0089C159.038 72.5335 158.975 73.0769 158.736 73.5705C158.498 74.064 158.095 74.4858 157.578 74.7824C157.062 75.079 156.455 75.2373 155.834 75.2373C155.42 75.2373 155.009 75.1666 154.626 75.0294C154.244 74.8921 153.896 74.691 153.604 74.4376C153.312 74.1842 153.081 73.8833 152.924 73.5527C152.768 73.222 152.688 72.868 152.691 72.5109Z" fill="#7E7E7E"/>
<path opacity="0.8" d="M123.602 72.5107C123.669 71.8296 124.03 71.1949 124.614 70.7323C125.198 70.2697 125.963 70.0131 126.756 70.0131C127.55 70.0131 128.315 70.2697 128.899 70.7323C129.483 71.1949 129.844 71.8296 129.911 72.5107C129.947 72.8866 129.893 73.2651 129.751 73.622C129.61 73.979 129.383 74.3066 129.087 74.5843C128.79 74.8621 128.43 75.084 128.029 75.2356C127.628 75.3873 127.195 75.4655 126.756 75.4655C126.318 75.4655 125.885 75.3873 125.484 75.2356C125.083 75.084 124.723 74.8621 124.426 74.5843C124.13 74.3066 123.903 73.979 123.762 73.622C123.62 73.2651 123.565 72.8866 123.602 72.5107Z" fill="#7E7E7E"/>
<path opacity="0.8" d="M94.5117 72.5105C94.5117 71.9713 94.6974 71.4442 95.0452 70.9958C95.393 70.5475 95.8874 70.1982 96.4658 69.9918C97.0442 69.7855 97.6806 69.7315 98.2947 69.8367C98.9087 69.9419 99.4728 70.2014 99.9155 70.5827C100.358 70.9639 100.66 71.4499 100.782 71.9788C100.904 72.5076 100.841 73.0558 100.602 73.5539C100.362 74.0521 99.9563 74.4777 99.4358 74.7773C98.9152 75.0769 98.3032 75.2369 97.6771 75.2369C96.8376 75.2369 96.0324 74.9497 95.4388 74.4384C94.8452 73.9271 94.5117 73.2336 94.5117 72.5105Z" fill="#7E7E7E"/>
<path opacity="0.8" d="M152.691 95.55C152.696 95.0154 152.884 94.4939 153.232 94.0512C153.58 93.6086 154.072 93.2646 154.647 93.0627C155.222 92.8607 155.853 92.8098 156.461 92.9164C157.069 93.023 157.627 93.2824 158.065 93.6617C158.502 94.0411 158.799 94.5234 158.919 95.048C159.038 95.5726 158.975 96.116 158.736 96.6095C158.498 97.1031 158.095 97.5248 157.578 97.8214C157.062 98.118 156.455 98.2763 155.834 98.2763C155.42 98.2763 155.009 98.2057 154.626 98.0685C154.244 97.9312 153.896 97.7301 153.604 97.4767C153.312 97.2233 153.081 96.9224 152.924 96.5917C152.768 96.2611 152.688 95.9071 152.691 95.55Z" fill="#7E7E7E"/>
<path opacity="0.8" d="M152.693 3.56673C152.693 3.03132 152.877 2.50788 153.223 2.0627C153.568 1.61753 154.059 1.27061 154.633 1.06572C155.208 0.860826 155.84 0.807171 156.449 0.911624C157.059 1.01608 157.619 1.27386 158.059 1.65245C158.498 2.03104 158.798 2.51347 158.919 3.03859C159.04 3.56371 158.978 4.10797 158.74 4.60262C158.502 5.09727 158.099 5.5201 157.583 5.81756C157.066 6.11502 156.458 6.27375 155.836 6.27375C155.004 6.26872 154.208 5.98186 153.62 5.47527C153.032 4.96868 152.699 4.28314 152.693 3.56673Z" fill="#7E7E7E"/>
<path opacity="0.8" d="M123.602 3.56701C123.597 3.02619 123.78 2.49643 124.126 2.04517C124.472 1.5939 124.966 1.24144 125.546 1.03272C126.125 0.823995 126.763 0.768416 127.379 0.872997C127.995 0.977578 128.561 1.2376 129.005 1.62003C129.449 2.00246 129.751 2.49008 129.873 3.02071C129.994 3.55133 129.93 4.10103 129.687 4.59997C129.445 5.0989 129.036 5.52442 128.512 5.82253C127.988 6.12063 127.373 6.27782 126.745 6.27403C125.913 6.269 125.117 5.98214 124.529 5.47555C123.941 4.96896 123.607 4.28341 123.602 3.56701Z" fill="#7E7E7E"/>
<path opacity="0.8" d="M94.5104 3.56667C94.4737 3.19072 94.528 2.81228 94.6699 2.45532C94.8117 2.09836 95.038 1.77065 95.3345 1.49291C95.631 1.21517 95.9911 0.99339 96.3922 0.841727C96.7933 0.690064 97.2267 0.611816 97.6648 0.611816C98.1028 0.611816 98.5361 0.690064 98.9372 0.841727C99.3383 0.99339 99.6984 1.21517 99.9949 1.49291C100.291 1.77065 100.518 2.09836 100.66 2.45532C100.801 2.81228 100.856 3.19072 100.819 3.56667C100.752 4.24775 100.391 4.88244 99.8071 5.34503C99.2229 5.80762 98.4584 6.06429 97.6648 6.06429C96.8712 6.06429 96.1065 5.80762 95.5223 5.34503C94.9381 4.88244 94.5769 4.24775 94.5104 3.56667Z" fill="#7E7E7E"/>
<path opacity="0.8" d="M152.693 26.548C152.693 26.0126 152.877 25.489 153.223 25.0438C153.568 24.5986 154.059 24.2517 154.633 24.0468C155.208 23.8419 155.84 23.7884 156.449 23.8929C157.059 23.9973 157.619 24.2551 158.059 24.6337C158.498 25.0123 158.798 25.4946 158.919 26.0197C159.04 26.5448 158.978 27.0892 158.74 27.5838C158.502 28.0785 158.099 28.5013 157.583 28.7988C157.066 29.0962 156.458 29.2549 155.836 29.2549C155.003 29.2549 154.203 28.9697 153.614 28.462C153.024 27.9543 152.693 27.2659 152.693 26.548Z" fill="#7E7E7E"/>
<path opacity="0.8" d="M123.602 26.5482C123.597 26.0074 123.78 25.4775 124.126 25.0263C124.472 24.575 124.966 24.2225 125.546 24.0138C126.125 23.8051 126.763 23.7496 127.379 23.8542C127.995 23.9588 128.561 24.2187 129.005 24.6011C129.449 24.9836 129.751 25.4711 129.873 26.0017C129.994 26.5323 129.93 27.0821 129.687 27.5811C129.445 28.08 129.036 28.5057 128.512 28.8038C127.988 29.1019 127.373 29.2589 126.745 29.2551C125.911 29.2551 125.112 28.97 124.522 28.4623C123.933 27.9546 123.602 27.2662 123.602 26.5482Z" fill="#7E7E7E"/>
<path opacity="0.8" d="M94.5118 26.5482C94.5074 26.0082 94.6893 25.4793 95.0344 25.0284C95.3795 24.5775 95.8724 24.225 96.4504 24.0157C97.0284 23.8064 97.6655 23.7498 98.281 23.8528C98.8965 23.9558 99.4627 24.2139 99.9076 24.5944C100.353 24.9749 100.656 25.4606 100.78 25.99C100.904 26.5194 100.843 27.0685 100.604 27.5677C100.365 28.067 99.9592 28.494 99.4382 28.7944C98.9172 29.0948 98.3042 29.2551 97.6772 29.2551C96.8415 29.2552 96.0398 28.9706 95.4468 28.4635C94.8538 27.9563 94.5177 27.268 94.5118 26.5482Z" fill="#7E7E7E"/>
<path opacity="0.8" d="M123.602 95.5496C123.669 94.8685 124.03 94.2339 124.614 93.7713C125.198 93.3087 125.963 93.052 126.756 93.052C127.55 93.052 128.315 93.3087 128.899 93.7713C129.483 94.2339 129.844 94.8685 129.911 95.5496C129.947 95.9256 129.893 96.304 129.751 96.661C129.61 97.0179 129.383 97.3455 129.087 97.6233C128.79 97.901 128.43 98.1229 128.029 98.2746C127.628 98.4262 127.195 98.5045 126.756 98.5045C126.318 98.5045 125.885 98.4262 125.484 98.2746C125.083 98.1229 124.723 97.901 124.426 97.6233C124.13 97.3455 123.903 97.0179 123.762 96.661C123.62 96.304 123.565 95.9256 123.602 95.5496Z" fill="#7E7E7E"/>
<path opacity="0.8" d="M94.5117 95.5496C94.5117 95.0104 94.6974 94.4832 95.0452 94.0349C95.393 93.5866 95.8874 93.2372 96.4658 93.0309C97.0442 92.8246 97.6806 92.7706 98.2947 92.8757C98.9087 92.9809 99.4728 93.2405 99.9155 93.6217C100.358 94.003 100.66 94.489 100.782 95.0178C100.904 95.5467 100.841 96.0948 100.602 96.593C100.362 97.0912 99.9563 97.5168 99.4358 97.8164C98.9152 98.1159 98.3032 98.276 97.6771 98.276C97.2614 98.276 96.8498 98.2053 96.4658 98.0683C96.0817 97.9313 95.7328 97.7306 95.4388 97.4775C95.1449 97.2243 94.9118 96.9238 94.7527 96.593C94.5936 96.2622 94.5117 95.9076 94.5117 95.5496Z" fill="#7E7E7E"/>
<path opacity="0.8" d="M152.691 118.454C152.696 117.919 152.884 117.398 153.232 116.955C153.58 116.512 154.072 116.168 154.647 115.966C155.222 115.765 155.853 115.714 156.461 115.82C157.069 115.927 157.627 116.186 158.065 116.566C158.502 116.945 158.799 117.427 158.919 117.952C159.038 118.476 158.975 119.02 158.736 119.513C158.498 120.007 158.095 120.428 157.578 120.725C157.062 121.022 156.455 121.18 155.834 121.18C155.42 121.18 155.009 121.109 154.626 120.972C154.244 120.835 153.896 120.634 153.604 120.38C153.312 120.127 153.081 119.826 152.924 119.496C152.768 119.165 152.688 118.811 152.691 118.454Z" fill="#7E7E7E"/>
<path opacity="0.8" d="M123.602 118.454C123.602 117.914 123.788 117.386 124.137 116.937C124.486 116.488 124.981 116.139 125.561 115.933C126.141 115.728 126.778 115.675 127.393 115.782C128.008 115.888 128.572 116.15 129.013 116.533C129.455 116.916 129.755 117.404 129.874 117.934C129.994 118.464 129.928 119.013 129.685 119.511C129.442 120.008 129.033 120.433 128.51 120.73C127.986 121.027 127.372 121.184 126.745 121.18C126.33 121.18 125.92 121.11 125.537 120.972C125.154 120.835 124.806 120.634 124.514 120.381C124.222 120.127 123.991 119.826 123.835 119.496C123.678 119.165 123.599 118.811 123.602 118.454Z" fill="#7E7E7E"/>
<path opacity="0.8" d="M94.5117 118.454C94.5117 117.915 94.6974 117.388 95.0452 116.94C95.393 116.491 95.8874 116.142 96.4658 115.935C97.0442 115.729 97.6806 115.675 98.2947 115.78C98.9087 115.885 99.4728 116.145 99.9155 116.526C100.358 116.908 100.66 117.393 100.782 117.922C100.904 118.451 100.841 118.999 100.602 119.497C100.362 119.996 99.9563 120.421 99.4358 120.721C98.9152 121.021 98.3032 121.18 97.6771 121.18C96.8376 121.18 96.0324 120.893 95.4388 120.382C94.8452 119.871 94.5117 119.177 94.5117 118.454Z" fill="#7E7E7E"/>
</g>
</svg>
