<svg width="256" height="308" viewBox="0 0 256 308" fill="none" xmlns="http://www.w3.org/2000/svg">
<g opacity="0.24">
<path d="M272.172 129.425L272.172 101.171L315.801 57.6222M272.172 129.425L378.848 235.9M272.172 129.425L252.489 129.425L232.457 149.414M175.48 -115.743L175.48 -57.0108L231.938 -0.655858M231.938 -0.655858L231.938 83.7754L221.035 94.6581L190.602 94.6581M231.938 -0.655858L248.852 -17.5337L248.852 -194.788M333.635 77.5465L273.034 17.0559M273.034 17.0559L273.034 -37.383M273.034 17.0559L252.869 37.1838L231.938 37.1838L221.206 48.8001L205.818 48.8003M273.034 -37.383L149.551 -160.641M273.034 -37.383L349.238 -113.448M205.818 109.847L175.48 79.5642L175.48 11.2516M205.818 109.847L205.818 141.901L370.713 306.495M205.818 109.847L246.198 109.847M175.48 11.2516L135.791 -28.3651M175.48 11.2516L202.632 11.2521M135.791 -28.3651L116.9 -28.3651L0.543778 -144.509M135.791 -28.3651L135.791 -56.3029L39.9792 -151.939M202.632 11.2521L223.252 -9.32459M202.632 11.2521L156.734 -34.568L156.734 -113.447M253.09 36.9628L273.287 57.1221L273.287 82.6627L231.938 123.936L231.938 148.895L348.522 265.26M248.852 -61.5196L314.566 -127.113M205.818 94.5255L205.818 48.8003M205.818 48.8003L195.929 38.923L195.929 11.2514" stroke="url(#paint0_radial_1188_2158)" stroke-width="1.5202" stroke-miterlimit="10"/>
</g>
<defs>
<radialGradient id="paint0_radial_1188_2158" cx="0" cy="0" r="1" gradientUnits="userSpaceOnUse" gradientTransform="translate(189.696 55.8538) rotate(-13.0372) scale(262.799 198.327)">
<stop offset="0.275" stop-color="#434343"/>
<stop offset="0.69" stop-color="#212121" stop-opacity="0"/>
</radialGradient>
</defs>
</svg>
