<svg xmlns="http://www.w3.org/2000/svg" xmlns:xlink="http://www.w3.org/1999/xlink" width="92" zoomAndPan="magnify" viewBox="0 0 69 59.249999" height="79" preserveAspectRatio="xMidYMid meet" version="1.0"><defs><g/></defs><g fill="#5271ff" fill-opacity="1"><g transform="translate(11.150137, 40.401832)"><g><path d="M 7.171875 0 L 1.6875 0 L 14.6875 -24.15625 L 19.75 -24.15625 L 32.734375 0 L 27.25 0 L 17.21875 -18.640625 Z M 7.171875 0 "/></g></g></g><g fill="#5271ff" fill-opacity="1"><g transform="translate(49.026135, 40.401832)"><g><path d="M 1.6875 -24.15625 L 6.515625 -24.15625 L 6.515625 0 L 1.6875 0 Z M 1.6875 -24.15625 "/></g></g></g><g fill="#5271ff" fill-opacity="1"><g transform="translate(11.150137, 40.401832)"><g><path d="M 7.171875 0 L 1.6875 0 L 14.6875 -24.15625 L 19.75 -24.15625 L 32.734375 0 L 27.25 0 L 17.21875 -18.640625 Z M 7.171875 0 "/></g></g></g><g fill="#5271ff" fill-opacity="1"><g transform="translate(49.026135, 40.401832)"><g><path d="M 1.6875 -24.15625 L 6.515625 -24.15625 L 6.515625 0 L 1.6875 0 Z M 1.6875 -24.15625 "/></g></g></g></svg>