<svg width="320" height="320" viewBox="0 0 320 320" fill="none" xmlns="http://www.w3.org/2000/svg">
<path fill-rule="evenodd" clip-rule="evenodd" d="M66.7305 0.395562C31.3986 4.37326 4.01202 32.0963 0.435442 67.5051C-0.147804 73.2766 -0.143809 247.34 0.439437 252.701C1.42416 261.757 3.64769 269.652 7.44837 277.589C18.6375 300.957 41.2435 316.849 67.1871 319.586C72.509 320.147 247.252 320.133 252.406 319.571C264.888 318.21 276.107 314.176 286.285 307.392C304.215 295.439 316.531 275.629 318.828 255.043C319.077 252.811 319.443 250.673 319.642 250.291C320.106 249.398 320.126 69.4398 319.662 69.727C319.474 69.843 319.211 68.5213 319.078 66.7894C318.249 56.0213 313.68 43.3417 307.019 33.3205C294.636 14.6917 274.99 2.84107 252.406 0.37756C247.688 -0.137304 71.3098 -0.120102 66.7305 0.395562ZM152.819 66.2118C139.019 67.7031 129.452 70.3607 118.464 75.7546C90.2952 89.5815 70.6031 115.491 64.9436 146.173C59.4683 175.856 67.7552 206.768 87.2656 229.44C96.2571 239.888 103.227 245.25 109.249 246.351C111.64 246.789 171.752 247.009 171.322 246.579C171.209 246.465 162.015 243.237 150.89 239.406C139.766 235.574 129.577 231.858 128.247 231.149C123.767 228.758 119.857 223.645 118.445 218.329C117.784 215.844 117.705 210.958 118.284 208.441C118.504 207.485 127.15 186.513 137.497 161.836C147.843 137.159 157.86 113.238 159.757 108.678C161.654 104.118 163.305 100.382 163.427 100.377C163.549 100.371 172.125 115.804 182.487 134.671C243.82 246.353 243.944 246.574 245.275 246.71C246.09 246.794 246.49 246.66 246.476 246.31C246.464 246.021 227.719 208.167 204.821 162.191L163.188 78.5957L129.64 145.681C111.189 182.577 95.9136 212.709 95.6946 212.64C94.7774 212.352 89.6181 204.15 86.8697 198.611C76.7468 178.21 75.1724 155.977 82.3148 134.28C86.7171 120.905 93.7004 109.716 103.741 99.95C110.918 92.9699 117.487 88.3377 126.453 83.9344C150.458 72.1465 178.45 72.3945 202.937 84.6125C212.892 89.5795 220.58 95.1814 227.922 102.818C240.723 116.132 248.611 132.278 251.553 151.188C252.44 156.883 252.558 171.679 251.756 176.576C249.524 190.21 245.809 200.823 239.796 210.742C238.088 213.56 238.034 213.737 238.737 214.251C239.415 214.748 239.656 214.516 241.616 211.487C244.635 206.821 249.368 197.004 251.215 191.578C254.776 181.118 256.187 172.559 256.197 161.374C256.204 152.759 255.615 147.223 253.856 139.372C250.917 126.255 244.215 112.456 235.593 101.767C232.479 97.9061 225.372 90.8172 221.53 87.7396C208.088 76.9715 191.132 69.5934 173.792 66.9663C169.733 66.3514 156.074 65.8601 152.819 66.2118ZM0.21293 160.174C0.21293 209.9 0.259669 230.183 0.316396 205.248C0.373123 180.312 0.373123 139.627 0.316396 114.837C0.259669 90.0459 0.21293 110.448 0.21293 160.174Z" fill="#EEF5FF"/>
</svg>
