<svg xmlns="http://www.w3.org/2000/svg" xmlns:xlink="http://www.w3.org/1999/xlink" width="259" zoomAndPan="magnify" viewBox="0 0 194.25 59.249999" height="79" preserveAspectRatio="xMidYMid meet" version="1.0"><defs><g/></defs><g fill="#000000" fill-opacity="1"><g transform="translate(18.46845, 39.924539)"><g><path d="M 14.34375 0.484375 C 12.195312 0.484375 10.328125 0.140625 8.734375 -0.546875 C 7.148438 -1.242188 5.832031 -2.1875 4.78125 -3.375 C 3.738281 -4.5625 2.960938 -5.90625 2.453125 -7.40625 C 1.941406 -8.914062 1.6875 -10.476562 1.6875 -12.09375 C 1.6875 -13.6875 1.953125 -15.238281 2.484375 -16.75 C 3.015625 -18.257812 3.8125 -19.601562 4.875 -20.78125 C 5.9375 -21.96875 7.253906 -22.910156 8.828125 -23.609375 C 10.410156 -24.316406 12.25 -24.671875 14.34375 -24.671875 C 15.957031 -24.671875 17.53125 -24.363281 19.0625 -23.75 C 20.59375 -23.144531 21.976562 -22.234375 23.21875 -21.015625 L 21.15625 -19.109375 C 20.207031 -20.015625 19.140625 -20.6875 17.953125 -21.125 C 16.765625 -21.5625 15.5625 -21.78125 14.34375 -21.78125 C 12.726562 -21.78125 11.316406 -21.507812 10.109375 -20.96875 C 8.898438 -20.425781 7.894531 -19.691406 7.09375 -18.765625 C 6.300781 -17.847656 5.707031 -16.800781 5.3125 -15.625 C 4.925781 -14.445312 4.734375 -13.238281 4.734375 -12 C 4.753906 -10.769531 4.957031 -9.578125 5.34375 -8.421875 C 5.738281 -7.273438 6.328125 -6.242188 7.109375 -5.328125 C 7.898438 -4.421875 8.894531 -3.695312 10.09375 -3.15625 C 11.289062 -2.613281 12.707031 -2.34375 14.34375 -2.34375 C 15.5625 -2.34375 16.785156 -2.582031 18.015625 -3.0625 C 19.253906 -3.550781 20.332031 -4.25 21.25 -5.15625 L 23.359375 -3.078125 C 22.097656 -1.878906 20.695312 -0.984375 19.15625 -0.390625 C 17.625 0.191406 16.019531 0.484375 14.34375 0.484375 Z M 14.34375 0.484375 "/></g></g></g><g fill="#000000" fill-opacity="1"><g transform="translate(46.458479, 39.924539)"><g><path d="M 10.5 0.421875 C 8.75 0.421875 7.191406 0.0546875 5.828125 -0.671875 C 4.472656 -1.398438 3.414062 -2.441406 2.65625 -3.796875 C 1.894531 -5.160156 1.515625 -6.765625 1.515625 -8.609375 C 1.515625 -10.335938 1.894531 -11.863281 2.65625 -13.1875 C 3.414062 -14.507812 4.460938 -15.550781 5.796875 -16.3125 C 7.140625 -17.070312 8.664062 -17.453125 10.375 -17.453125 C 11.976562 -17.453125 13.429688 -17.148438 14.734375 -16.546875 C 16.035156 -15.953125 17.066406 -15.023438 17.828125 -13.765625 C 18.585938 -12.515625 18.96875 -10.921875 18.96875 -8.984375 C 18.96875 -8.753906 18.960938 -8.523438 18.953125 -8.296875 C 18.941406 -8.066406 18.925781 -7.820312 18.90625 -7.5625 L 4.359375 -7.5625 C 4.472656 -6.457031 4.816406 -5.507812 5.390625 -4.71875 C 5.960938 -3.925781 6.695312 -3.3125 7.59375 -2.875 C 8.5 -2.4375 9.492188 -2.21875 10.578125 -2.21875 C 11.523438 -2.21875 12.523438 -2.394531 13.578125 -2.75 C 14.640625 -3.101562 15.445312 -3.628906 16 -4.328125 L 17.9375 -2.625 L 17.90625 -2.625 C 17.007812 -1.59375 15.882812 -0.828125 14.53125 -0.328125 C 13.1875 0.171875 11.84375 0.421875 10.5 0.421875 Z M 4.359375 -9.921875 L 16.171875 -9.921875 C 16.128906 -11.554688 15.582031 -12.789062 14.53125 -13.625 C 13.488281 -14.46875 12.125 -14.890625 10.4375 -14.890625 C 8.957031 -14.890625 7.640625 -14.472656 6.484375 -13.640625 C 5.335938 -12.816406 4.628906 -11.578125 4.359375 -9.921875 Z M 4.359375 -9.921875 "/></g></g></g><g fill="#000000" fill-opacity="1"><g transform="translate(70.16373, 39.924539)"><g><path d="M 2.796875 0 L 2.796875 -24.1875 L 5.59375 -24.1875 L 5.59375 0 Z M 2.796875 0 "/></g></g></g><g fill="#000000" fill-opacity="1"><g transform="translate(82.051266, 39.924539)"><g><path d="M 10.5 0.421875 C 8.75 0.421875 7.191406 0.0546875 5.828125 -0.671875 C 4.472656 -1.398438 3.414062 -2.441406 2.65625 -3.796875 C 1.894531 -5.160156 1.515625 -6.765625 1.515625 -8.609375 C 1.515625 -10.335938 1.894531 -11.863281 2.65625 -13.1875 C 3.414062 -14.507812 4.460938 -15.550781 5.796875 -16.3125 C 7.140625 -17.070312 8.664062 -17.453125 10.375 -17.453125 C 11.976562 -17.453125 13.429688 -17.148438 14.734375 -16.546875 C 16.035156 -15.953125 17.066406 -15.023438 17.828125 -13.765625 C 18.585938 -12.515625 18.96875 -10.921875 18.96875 -8.984375 C 18.96875 -8.753906 18.960938 -8.523438 18.953125 -8.296875 C 18.941406 -8.066406 18.925781 -7.820312 18.90625 -7.5625 L 4.359375 -7.5625 C 4.472656 -6.457031 4.816406 -5.507812 5.390625 -4.71875 C 5.960938 -3.925781 6.695312 -3.3125 7.59375 -2.875 C 8.5 -2.4375 9.492188 -2.21875 10.578125 -2.21875 C 11.523438 -2.21875 12.523438 -2.394531 13.578125 -2.75 C 14.640625 -3.101562 15.445312 -3.628906 16 -4.328125 L 17.9375 -2.625 L 17.90625 -2.625 C 17.007812 -1.59375 15.882812 -0.828125 14.53125 -0.328125 C 13.1875 0.171875 11.84375 0.421875 10.5 0.421875 Z M 4.359375 -9.921875 L 16.171875 -9.921875 C 16.128906 -11.554688 15.582031 -12.789062 14.53125 -13.625 C 13.488281 -14.46875 12.125 -14.890625 10.4375 -14.890625 C 8.957031 -14.890625 7.640625 -14.472656 6.484375 -13.640625 C 5.335938 -12.816406 4.628906 -11.578125 4.359375 -9.921875 Z M 4.359375 -9.921875 "/></g></g></g><g fill="#000000" fill-opacity="1"><g transform="translate(105.756519, 39.924539)"><g><path d="M 2.59375 0 L 2.59375 -17.078125 L 5.21875 -17.078125 L 5.453125 -14.546875 C 6.097656 -15.679688 6.910156 -16.445312 7.890625 -16.84375 C 8.867188 -17.25 9.84375 -17.453125 10.8125 -17.453125 C 11.550781 -17.453125 12.253906 -17.316406 12.921875 -17.046875 C 13.585938 -16.785156 14.175781 -16.472656 14.6875 -16.109375 L 13.40625 -13.6875 C 12.945312 -14.007812 12.488281 -14.25 12.03125 -14.40625 C 11.570312 -14.570312 11.039062 -14.65625 10.4375 -14.65625 C 9.539062 -14.65625 8.710938 -14.445312 7.953125 -14.03125 C 7.191406 -13.613281 6.578125 -13.019531 6.109375 -12.25 C 5.648438 -11.476562 5.421875 -10.578125 5.421875 -9.546875 L 5.421875 0 Z M 2.59375 0 "/></g></g></g><g fill="#5271ff" fill-opacity="1"><g transform="translate(132.472334, 40.665164)"><g><path d="M 7.171875 0 L 1.6875 0 L 14.6875 -24.15625 L 19.75 -24.15625 L 32.734375 0 L 27.25 0 L 17.21875 -18.640625 Z M 7.171875 0 "/></g></g></g><g fill="#5271ff" fill-opacity="1"><g transform="translate(170.348332, 40.665164)"><g><path d="M 1.6875 -24.15625 L 6.515625 -24.15625 L 6.515625 0 L 1.6875 0 Z M 1.6875 -24.15625 "/></g></g></g></svg>