<svg width="300" height="80" viewBox="0 0 300 80" fill="none" xmlns="http://www.w3.org/2000/svg">
<path fill-rule="evenodd" clip-rule="evenodd" d="M194.798 11.5701C194.137 12.8717 173.393 58.3886 173.393 58.5374C173.393 58.622 175.059 58.6914 177.095 58.6914C179.792 58.6914 180.855 58.6147 181.01 58.4087C181.127 58.2533 184.302 51.3578 188.064 43.0856C191.826 34.8133 194.972 27.9757 195.054 27.8907C195.137 27.8056 198.366 34.6756 202.229 43.1573L209.254 58.5783L213.022 58.6403C215.414 58.6797 216.79 58.6202 216.79 58.4772C216.79 58.2825 195.376 11.2132 195.193 11.0047C195.155 10.9619 194.978 11.2164 194.798 11.5701ZM20.7168 18.9094C15.3406 19.4755 10.3835 22.0934 7.3561 25.965C4.72315 29.3321 3.2298 33.5321 3.02705 38.1394C2.57162 48.4915 7.88996 56.2146 17.2107 58.7369C18.9147 59.198 19.6301 59.2557 23.5394 59.2469C27.6806 59.2378 28.0671 59.2001 29.9352 58.6231C33.0288 57.6673 36.4297 55.7577 37.9432 54.1268L38.4465 53.5845L35.9797 51.1237L33.5129 48.663L32.2973 49.6013C28.9838 52.1593 24.5655 53.1192 20.196 52.2304C15.6595 51.3076 12.2893 48.319 10.8595 43.9514C10.1355 41.7396 10.0715 36.9084 10.7403 34.9434C12.3071 30.3399 15.3865 27.3508 19.7591 26.189C20.6727 25.9463 22.0384 25.8174 23.6524 25.8217C27.0758 25.8309 29.6156 26.6793 32.1877 28.6725L33.0383 29.3318L34.787 27.7486C35.7487 26.8779 36.8368 25.8479 37.205 25.46L37.874 24.7546L36.979 23.8687C34.5508 21.4658 29.913 19.3857 25.9126 18.9049C23.663 18.6344 23.3247 18.6346 20.7168 18.9094ZM87.5041 39.1337V58.7034L90.8379 58.641L94.1718 58.5783L94.2296 39.071L94.2873 19.5637H90.8958H87.5041V39.1337ZM59.1329 30.4021C51.6868 31.5967 47.0657 37.035 47.0497 44.6217C47.0377 50.3466 49.6236 55.1107 53.9848 57.3982C56.5449 58.7412 58.6162 59.2032 62.0764 59.2032C66.4355 59.2032 69.634 58.2235 72.6514 55.9638L73.9594 54.9845L71.7566 52.7718C69.5673 50.573 69.5508 50.5619 69.0924 50.9916C68.4261 51.6163 66.3404 52.535 64.9169 52.8311C64.2413 52.9715 62.7156 53.0455 61.5265 52.9957C59.7676 52.922 59.1112 52.7886 58.008 52.2803C56.3112 51.4987 55.2799 50.532 54.5921 49.0791C53.5956 46.973 52.6216 47.1567 64.7887 47.1567H75.5248V44.5437C75.5248 41.4133 75.1019 39.306 74.0134 37.011C72.5472 33.9197 69.5969 31.6159 66.0199 30.7689C64.2338 30.3462 60.666 30.156 59.1329 30.4021ZM117.686 30.4304C114.413 30.9442 111.909 32.1854 109.713 34.382C106.967 37.1287 105.739 40.3631 105.765 44.7819C105.791 49.2861 106.986 52.4043 109.761 55.2084C112.547 58.0242 115.787 59.2091 120.73 59.2191C122.946 59.2236 123.965 59.1162 125.456 58.721C127.831 58.0916 130.252 56.9228 131.579 55.7661L132.596 54.8791L130.483 52.7442L128.37 50.6096L127.306 51.3264C125.495 52.5459 123.938 52.924 120.73 52.924C118.153 52.924 117.793 52.8718 116.642 52.3315C114.591 51.3693 112.839 49.2279 112.824 47.6655L112.819 47.1567H123.584H134.35L134.23 44.1599C134.162 42.4774 133.947 40.568 133.74 39.8061C132.447 35.0646 129.318 31.9394 124.685 30.7601C122.963 30.3218 119.436 30.1556 117.686 30.4304ZM157.737 30.666C157.269 30.7764 156.506 31.0611 156.042 31.2986C155.203 31.7279 153.277 33.5101 153.277 33.8571C153.277 33.9571 153.184 34.0387 153.071 34.0387C152.957 34.0387 152.779 33.4027 152.675 32.6251L152.486 31.2116L149.263 31.1487L146.041 31.086L146.099 44.8321L146.157 58.5783L149.491 58.641L152.825 58.7034L152.832 51.6297C152.841 41.9721 153.065 40.5932 154.896 38.8702C155.943 37.8852 156.879 37.4577 158.467 37.2406C160.37 36.9801 162.107 37.2689 163.554 38.086L164.78 38.7786L166.258 35.9141C167.944 32.6459 167.948 32.6862 165.882 31.6377C163.682 30.5217 160.142 30.0992 157.737 30.666ZM238.773 30.7472C236.9 31.1747 234.801 32.3221 233.488 33.6357L232.418 34.7055L232.301 34.0894C232.236 33.7506 232.117 32.9388 232.037 32.2859L231.891 31.0985H228.748H225.605V50.5492V70H228.995H232.385V62.7358V55.4719L233.309 56.396C234.373 57.4608 235.987 58.3024 237.914 58.7977C239.672 59.2496 243.625 59.2505 245.391 58.7995C248.904 57.9021 251.986 55.4997 253.591 52.4081C254.966 49.7583 255.308 48.2303 255.297 44.7819C255.289 42.2134 255.211 41.6066 254.678 39.9836C253.202 35.4819 249.74 32.1832 245.216 30.9652C243.396 30.4754 240.409 30.3743 238.773 30.7472ZM280.362 30.7472C278.488 31.1747 276.389 32.3221 275.076 33.6357L274.007 34.7055L273.889 34.0894C273.824 33.7506 273.706 32.9388 273.625 32.2859L273.479 31.0985H270.336H267.193V50.5492V70H270.583H273.974V62.7627V55.5255L274.898 56.4234C276.767 58.2384 279.544 59.1438 283.241 59.1438C287.296 59.1438 290.089 58.1029 292.735 55.6058C297.695 50.9238 298.439 42.1999 294.388 36.2276C292.674 33.7003 289.954 31.8132 286.805 30.9652C284.984 30.4754 281.997 30.3743 280.362 30.7472ZM58.8669 36.7089C56.8243 37.4372 55.5898 38.4902 54.6527 40.3037C53.8774 41.8036 53.5097 41.7285 61.6244 41.7285C66.9495 41.7285 68.9701 41.658 68.9701 41.4721C68.9701 39.9036 67.3344 37.7615 65.5319 36.969C63.8717 36.2391 60.5483 36.1095 58.8669 36.7089ZM117.706 36.658C115.331 37.4148 113.61 39.0642 112.945 41.2196L112.788 41.7285H120.136C124.177 41.7285 127.528 41.6521 127.582 41.5589C127.788 41.204 127.044 39.3189 126.383 38.5201C126.003 38.0614 125.114 37.4026 124.405 37.0558C123.314 36.5218 122.789 36.4164 120.963 36.3662C119.493 36.3257 118.458 36.4185 117.706 36.658ZM238.97 37.2089C236.664 37.6943 234.662 39.2999 233.666 41.4626C233.271 42.3209 233.179 42.9462 233.178 44.7819C233.177 46.7541 233.252 47.2028 233.767 48.2875C234.482 49.7945 235.728 51.0726 237.245 51.8572C238.868 52.6963 241.902 52.8318 243.72 52.1465C245.497 51.4761 246.905 50.1627 247.803 48.3368C248.478 46.9653 248.546 46.6399 248.542 44.7866C248.539 43.0711 248.446 42.5466 247.954 41.492C247.134 39.7301 246.131 38.6804 244.515 37.8906C242.955 37.1287 240.68 36.8491 238.97 37.2089ZM280.558 37.2089C278.252 37.6943 276.25 39.2999 275.254 41.4626C274.859 42.3209 274.767 42.9462 274.766 44.7819C274.765 46.7541 274.84 47.2028 275.355 48.2875C276.071 49.7945 277.316 51.0726 278.833 51.8572C280.456 52.6963 283.49 52.8318 285.308 52.1465C287.085 51.4761 288.493 50.1627 289.391 48.3368C290.066 46.9653 290.134 46.6399 290.131 44.7866C290.128 43.0711 290.034 42.5466 289.543 41.492C288.722 39.7301 287.719 38.6804 286.103 37.8906C284.544 37.1287 282.268 36.8491 280.558 37.2089Z" fill="white"/>
</svg>
