<svg width="1064" height="244" viewBox="0 0 1064 244" fill="none" xmlns="http://www.w3.org/2000/svg">
<path fill-rule="evenodd" clip-rule="evenodd" d="M121.216 0.151246C100.571 2.51981 89.9145 5.46151 74.3971 13.0755C59.6235 20.3251 48.4971 28.4102 36.9591 40.2831C16.225 61.6173 3.56919 89.0489 0.432031 119.458C-0.420133 127.715 0.0445222 145.197 1.33307 153.366C3.51207 167.177 7.60269 179.95 14.0007 192.919C21 207.107 29.2855 218.501 40.6145 229.517C47.9547 236.655 52.954 240.433 57.4805 242.264L60.852 243.627L103.254 243.744C144.818 243.857 145.598 243.838 142.712 242.791C141.092 242.203 128.787 237.961 115.367 233.365C101.947 228.769 89.4139 224.18 87.5158 223.167C76.5537 217.317 70.5562 202.747 74.2151 190.855C74.8824 188.686 133.183 49.4926 134.453 47.0368C135.149 45.69 135.497 46.1812 141.144 56.4709C144.421 62.4416 168.92 106.994 195.586 155.477C243.573 242.723 244.089 243.629 245.971 243.814L247.873 244L191.261 130.64L134.65 17.2802L89.2738 107.902C50.8528 184.634 43.7669 198.415 43.042 197.812C42.5708 197.421 40.3483 194.315 38.1027 190.911C16.2627 157.802 13.2563 115.687 30.1353 79.2899C44.496 48.3228 73.4183 24.3476 106.816 15.7259C141.07 6.88253 178.711 14.6993 208.26 36.7918C213.992 41.0779 224.5 51.245 229.152 57.0075C243.229 74.4425 252.085 95.7454 254.885 118.904C255.766 126.191 255.624 140.827 254.595 148.681C252.458 165.011 246.567 181.812 237.794 196.604C236.206 199.28 236.087 199.749 236.915 200.067C238.096 200.521 237.677 200.998 241.65 194.688C250.564 180.534 256.901 163.007 259.369 145.685C260.542 137.45 260.695 120.585 259.664 113.023C256.211 87.6792 247.282 66.5001 232.169 47.8003C212.395 23.3334 182.29 6.37309 149.575 1.26861C144.061 0.408327 125.39 -0.327539 121.216 0.151246ZM797.707 55.0364C795.985 58.4297 741.935 177.093 741.935 177.481C741.935 177.702 746.275 177.883 751.58 177.883C758.607 177.883 761.376 177.683 761.782 177.146C762.087 176.741 770.358 158.764 780.161 137.198C789.964 115.632 798.16 97.8062 798.375 97.5845C798.59 97.3628 807.002 115.273 817.069 137.385L835.373 177.588L845.19 177.75C851.422 177.852 855.007 177.697 855.007 177.325C855.007 176.817 799.214 54.1059 798.736 53.5623C798.638 53.4508 798.175 54.1142 797.707 55.0364ZM344.128 74.1701C330.12 75.6459 317.204 82.4709 309.316 92.5643C302.456 101.342 298.565 112.292 298.037 124.303C296.85 151.292 310.707 171.426 334.993 178.001C339.433 179.204 341.297 179.354 351.483 179.331C362.273 179.307 363.28 179.209 368.147 177.705C376.208 175.213 385.069 170.235 389.013 165.983L390.324 164.569L383.897 158.154L377.469 151.738L374.302 154.185C365.669 160.854 354.157 163.356 342.772 161.039C330.951 158.633 322.17 150.842 318.445 139.455C316.558 133.689 316.392 121.094 318.134 115.971C322.217 103.97 330.24 96.177 341.633 93.1481C344.014 92.5154 347.572 92.1793 351.777 92.1905C360.697 92.2147 367.315 94.4264 374.017 99.6229L376.233 101.342L380.789 97.2142C383.295 94.9441 386.13 92.2589 387.089 91.2477L388.833 89.4086L386.5 87.099C380.174 80.8347 368.09 75.4118 357.666 74.1583C351.805 73.4531 350.923 73.4536 344.128 74.1701ZM518.146 126.895V177.914L526.833 177.751L535.52 177.588L535.67 126.732L535.82 75.8759H526.984H518.146V126.895ZM444.224 104.132C424.822 107.246 412.782 121.424 412.74 141.203C412.709 156.128 419.447 168.548 430.81 174.511C437.481 178.013 442.878 179.217 451.893 179.217C463.251 179.217 471.585 176.663 479.447 170.772L482.855 168.219L477.115 162.45C471.411 156.718 471.368 156.689 470.174 157.809C468.438 159.438 463.003 161.833 459.294 162.605C457.534 162.971 453.559 163.164 450.46 163.034C445.877 162.842 444.167 162.494 441.293 161.169C436.872 159.131 434.185 156.611 432.392 152.823C429.796 147.333 427.258 147.811 458.96 147.811H486.934V140.999C486.934 132.838 485.832 127.345 482.996 121.362C479.175 113.302 471.488 107.296 462.168 105.088C457.514 103.986 448.218 103.49 444.224 104.132ZM596.788 104.206C588.259 105.545 581.734 108.781 576.012 114.508C568.858 121.668 565.659 130.101 565.726 141.62C565.793 153.363 568.908 161.492 576.137 168.803C583.397 176.143 591.839 179.233 604.717 179.259C610.491 179.27 613.147 178.99 617.033 177.96C623.22 176.319 629.53 173.272 632.985 170.257L635.636 167.944L630.13 162.378L624.626 156.813L621.852 158.682C617.133 161.861 613.078 162.847 604.717 162.847C598.005 162.847 597.065 162.711 594.066 161.302C588.723 158.794 584.158 153.211 584.118 149.138L584.105 147.811H612.155H640.206L639.893 139.999C639.717 135.613 639.157 130.635 638.615 128.648C635.247 116.287 627.096 108.14 615.023 105.065C610.536 103.923 601.346 103.489 596.788 104.206ZM701.143 104.82C699.924 105.108 697.936 105.85 696.726 106.469C694.54 107.588 689.521 112.235 689.521 113.139C689.521 113.4 689.279 113.613 688.984 113.613C688.688 113.613 688.225 111.955 687.953 109.927L687.46 106.242L679.063 106.078L670.667 105.915L670.819 141.751L670.971 177.588L679.657 177.751L688.344 177.914L688.362 159.473C688.387 134.295 688.968 130.7 693.739 126.208C696.468 123.641 698.907 122.526 703.044 121.96C708.002 121.281 712.528 122.034 716.298 124.164L719.493 125.97L723.345 118.502C727.738 109.982 727.747 110.087 722.364 107.353C716.633 104.444 707.407 103.342 701.143 104.82ZM912.287 105.032C907.406 106.146 901.936 109.137 898.515 112.562L895.729 115.351L895.423 113.745C895.254 112.861 894.945 110.745 894.735 109.043L894.354 105.947H886.165H877.975V156.656V207.365H886.809H895.643V188.427V169.489L898.049 171.899C900.822 174.675 905.026 176.869 910.047 178.16C914.63 179.338 924.929 179.341 929.529 178.165C938.682 175.825 946.713 169.562 950.894 161.502C954.477 154.594 955.368 150.61 955.341 141.62C955.32 134.924 955.116 133.342 953.729 129.111C949.881 117.375 940.863 108.775 929.074 105.6C924.33 104.323 916.548 104.059 912.287 105.032ZM1020.65 105.032C1015.77 106.146 1010.3 109.137 1006.88 112.562L1004.09 115.351L1003.78 113.745C1003.61 112.861 1003.31 110.745 1003.1 109.043L1002.71 105.947H994.525H986.336V156.656V207.365H995.17H1004V188.497V169.629L1006.41 171.97C1011.28 176.702 1018.52 179.062 1028.15 179.062C1038.72 179.062 1045.99 176.349 1052.89 169.839C1065.81 157.632 1067.75 134.889 1057.19 119.319C1052.73 112.73 1045.64 107.811 1037.44 105.6C1032.69 104.323 1024.91 104.059 1020.65 105.032ZM443.531 120.574C438.209 122.472 434.992 125.218 432.55 129.946C430.53 133.856 429.572 133.66 450.715 133.66C464.59 133.66 469.855 133.476 469.855 132.992C469.855 128.902 465.593 123.318 460.897 121.252C456.571 119.349 447.912 119.011 443.531 120.574ZM596.84 120.441C590.652 122.414 586.166 126.714 584.434 132.334L584.026 133.66H603.171C613.7 133.66 622.431 133.461 622.572 133.218C623.109 132.293 621.17 127.378 619.448 125.296C618.459 124.1 616.14 122.382 614.295 121.478C611.452 120.086 610.084 119.811 605.326 119.681C601.495 119.575 598.799 119.817 596.84 120.441ZM912.799 121.878C906.791 123.143 901.575 127.329 898.98 132.967C897.951 135.204 897.711 136.835 897.708 141.62C897.704 146.762 897.901 147.932 899.243 150.76C901.107 154.688 904.351 158.02 908.304 160.066C912.533 162.253 920.439 162.607 925.175 160.82C929.806 159.072 933.474 155.648 935.814 150.888C937.573 147.313 937.75 146.464 937.741 141.633C937.733 137.16 937.489 135.793 936.209 133.043C934.07 128.45 931.458 125.714 927.246 123.655C923.184 121.668 917.255 120.939 912.799 121.878ZM1021.16 121.878C1015.15 123.143 1009.94 127.329 1007.34 132.967C1006.31 135.204 1006.07 136.835 1006.07 141.62C1006.07 146.762 1006.26 147.932 1007.6 150.76C1009.47 154.688 1012.71 158.02 1016.67 160.066C1020.89 162.253 1028.8 162.607 1033.54 160.82C1038.17 159.072 1041.83 155.648 1044.18 150.888C1045.93 147.313 1046.11 146.464 1046.1 141.633C1046.09 137.16 1045.85 135.793 1044.57 133.043C1042.43 128.45 1039.82 125.714 1035.61 123.655C1031.54 121.668 1025.62 120.939 1021.16 121.878Z" fill="#111111"/>
</svg>
