<svg width="591" height="163" viewBox="0 0 591 163" fill="none" xmlns="http://www.w3.org/2000/svg">
<path fill-rule="evenodd" clip-rule="evenodd" d="M364.479 47.32C352.651 73.2321 342.872 94.8184 342.749 95.2898C342.535 96.108 342.872 96.1413 350.184 96.0222L357.844 95.8972L371.889 65.0992C379.614 48.1601 386.052 34.3016 386.196 34.3016C386.34 34.3021 392.793 48.2119 400.536 65.2128L414.613 96.123L422.253 96.124C428.616 96.1244 429.868 96.0167 429.746 95.4794C429.5 94.4016 386.476 0.233854 386.222 0.220216C386.093 0.213398 376.309 21.4083 364.479 47.32ZM35.2301 16.1447C17.5883 18.3399 5.16202 29.4549 0.822986 46.9218C-0.37178 51.7317 -0.244175 62.8762 1.06594 68.1403C3.09536 76.2924 7.72229 84.0348 13.3342 88.6684C25.9394 99.077 47.5519 100.833 62.4204 92.6578C65.3957 91.0222 71.0785 86.7768 71.0785 86.1904C71.0785 86.02 68.8583 83.6652 66.145 80.9577L61.2116 76.0342L58.9928 77.7389C53.4821 81.9724 46.5011 84.0907 39.2898 83.7175C29.0328 83.187 21.2153 78.3221 17.3018 70.0346C15.1111 65.3956 14.5367 62.5554 14.5794 56.5758C14.6112 52.1595 14.8051 50.7994 15.8291 47.8123C19.7962 36.2423 28.4652 30.1881 41.1072 30.1586C48.209 30.1418 53.4472 31.8178 58.3021 35.6595L60.5041 37.4015L65.393 32.492L70.2824 27.5825L66.7767 24.7936C58.1717 17.9485 46.4847 14.7446 35.2301 16.1447ZM169.731 56.6894L169.848 95.8972L176.546 96.0231L183.244 96.1485V56.8153V17.4816H176.429H169.616L169.731 56.6894ZM112.63 39.2711C104.651 40.5817 98.4691 44.0979 94.1959 49.757C86.7971 59.5551 86.5323 75.4241 93.5956 85.7722C96.1009 89.443 99.2256 92.0668 103.547 94.1288C108.825 96.6467 111.811 97.2423 118.987 97.2091C124.552 97.1827 125.852 97.025 129.419 95.9426C134.257 94.4743 138.098 92.5078 140.703 90.1662L142.601 88.4602L138.328 84.1421L134.055 79.824L132.651 80.8959C129.375 83.397 124.347 84.8139 118.801 84.7985C114.199 84.7862 111.053 83.9439 108.023 81.9146C105.67 80.3381 102.866 76.276 102.866 74.4427V73.4044L124.323 73.2862L145.78 73.168L145.752 67.2585C145.709 57.935 143.72 52.2031 138.645 46.7713C135.639 43.5556 131.56 41.2313 126.707 39.9717C123.462 39.1293 115.812 38.7484 112.63 39.2711ZM230.412 39.303C215.831 41.6246 206.443 52.7664 206.411 67.7867C206.381 82.2679 214.216 93.0237 227.212 96.3427C234.16 98.1169 243.423 97.5664 250.319 94.9698C253.512 93.7679 258.366 90.8499 259.785 89.2798C260.571 88.4097 260.555 88.3357 259.272 86.9824C258.542 86.2128 256.583 84.3694 254.918 82.8861L251.892 80.189L249.015 81.7701C245.179 83.8784 241.499 84.7903 236.829 84.7889C228.881 84.7871 223.217 81.4964 221.171 75.6937C220.792 74.6168 220.481 73.659 220.481 73.5653C220.481 73.4717 230.175 73.3953 242.024 73.3953H263.566L263.877 71.3188C264.272 68.6786 263.743 61.7893 262.888 58.4568C261.198 51.8685 257.099 46.0121 252.05 42.9719C246.854 39.8439 237.246 38.2147 230.412 39.303ZM310.191 40.0276C307.373 40.9281 304.437 42.9296 302.817 45.0553L301.569 46.6927L301.259 45.3839C301.087 44.6639 300.816 43.3079 300.656 42.3701L300.363 40.6654H294.026H287.689V68.3949V96.1245H294.471H301.252L301.396 79.4185C301.537 63.1031 301.564 62.6595 302.584 60.4397C304.89 55.4198 309.037 52.9391 315.123 52.9391C318.69 52.9391 321.423 53.686 323.641 55.267C325.274 56.4312 324.856 56.9067 328.575 49.6548L331.308 44.3248L329.432 42.9642C326.112 40.5572 322.983 39.6457 317.434 39.4689C313.769 39.3525 311.84 39.5012 310.191 40.0276ZM474.061 39.9457C470.222 40.824 466.08 43.0246 463.403 45.6071C460.858 48.0623 461.001 48.1755 460.47 43.2792L460.186 40.6654H453.861H447.536V79.9868V119.308H454.348H461.16V104.518V89.7285L462.567 91.3327C464.559 93.6038 469.713 96.0221 474.342 96.8568C488.309 99.376 501.365 92.1278 505.599 79.5027C510.694 64.3114 504.729 48.1178 491.868 42.2237C486.315 39.6789 479.204 38.7693 474.061 39.9457ZM557.618 39.9457C553.72 40.8376 549.517 43.0896 546.944 45.6653L544.744 47.8673L544.523 46.4258C544.401 45.6326 544.179 44.012 544.027 42.8246L543.752 40.6654H537.423H531.093V79.9868V119.308H537.904H544.716V104.518V89.7285L546.123 91.3327C549.402 95.0707 558.273 97.8382 565.151 97.2691C576.628 96.319 584.939 90.4663 588.721 80.6686C594.495 65.7106 588.947 49.0006 576.038 42.4782C570.771 39.8162 562.91 38.7356 557.618 39.9457ZM113.644 51.5899C108.643 52.8441 104.417 56.6221 103.11 61.0079L102.805 62.0308H117.594H132.383L132.373 61.0079C132.368 60.4456 131.987 59.1669 131.527 58.1668C129.513 53.7896 125.36 51.4662 119.214 51.279C117.091 51.214 114.585 51.3539 113.644 51.5899ZM230.178 52.0285C226.842 53.1218 223.272 56.1221 221.879 59.0023C221.36 60.0756 220.935 61.1962 220.935 61.4926C220.935 61.8962 224.627 62.0308 235.694 62.0308C246.393 62.0308 250.452 61.8889 250.452 61.5153C250.452 58.3509 247.16 54.0455 243.544 52.4822C240.093 50.9898 233.979 50.7825 230.178 52.0285ZM474.329 53.1009C469.383 54.2328 465.757 57.1108 463.72 61.5208C462.923 63.245 462.749 64.4782 462.749 68.3949C462.749 73.4813 463.251 75.0595 466.028 78.7116C470.761 84.9348 482.275 85.7218 488.489 80.2468C495.784 73.8185 495.326 61.3239 487.586 55.6261C484.123 53.0764 478.836 52.0695 474.329 53.1009ZM557.873 53.0864C553.12 54.141 549.203 57.2767 547.295 61.553C546.005 64.4455 545.723 70.271 546.727 73.2962C548.976 80.075 554.397 83.9012 561.751 83.9012C568.079 83.9012 572.942 80.905 575.692 75.3127C577.043 72.5671 577.181 71.9093 577.144 68.4044C577.099 64.1846 576.353 61.5884 574.353 58.6955C571.19 54.1205 564.095 51.7058 557.873 53.0864ZM125.572 153.402V162.948H133.791C143.526 162.948 144.693 162.617 146.089 159.459C147.07 157.238 146.895 155.183 145.574 153.43C144.914 152.555 144.838 152.071 145.198 151.038C145.91 148.996 145.264 146.822 143.479 145.254L141.888 143.856H133.73H125.572V153.402ZM169.621 144.042C169.621 144.145 171.664 146.75 174.162 149.833L178.703 155.437V159.193V162.948H180.746H182.79V159.196V155.443L187.331 149.877C189.828 146.816 191.872 144.209 191.872 144.084C191.872 143.958 190.799 143.863 189.488 143.872L187.104 143.888L184.379 147.319C182.881 149.206 181.419 150.946 181.131 151.186C180.764 151.491 179.675 150.463 177.498 147.76L174.389 143.899L172.005 143.877C170.694 143.865 169.621 143.94 169.621 144.042ZM250.799 148.743C249.366 151.43 247.062 155.726 245.679 158.289L243.164 162.948H245.374C247.435 162.948 247.643 162.84 248.441 161.357L249.297 159.766H255.558H261.82L262.577 161.357C263.291 162.855 263.465 162.948 265.56 162.948C266.783 162.948 267.716 162.786 267.633 162.589C267.55 162.391 265.267 158.095 262.56 153.043L257.639 143.856L255.522 143.856L253.404 143.857L250.799 148.743ZM283.602 145.674V147.492H287.916H292.23V155.22V162.948H294.036H295.842L295.966 155.334L296.09 147.72L300.518 147.59L304.946 147.46V145.658V143.856H294.274H283.602V145.674ZM327.651 153.402V162.948H329.468H331.284V153.402V143.856H329.468H327.651V153.402ZM353.99 144.039C353.99 144.14 356.256 148.436 359.027 153.586L364.064 162.948L365.952 162.944L367.84 162.941L370.67 157.603C372.228 154.667 374.525 150.373 375.776 148.061L378.051 143.856H375.826H373.601L369.826 150.928C366.432 157.286 365.989 157.918 365.44 157.179C365.105 156.727 363.362 153.547 361.567 150.114L358.304 143.871L356.147 143.863C354.96 143.859 353.99 143.938 353.99 144.039ZM401.636 144.889C398.728 146.851 398.038 148.456 398.038 153.265C398.038 158.165 398.538 159.515 401.066 161.447C402.617 162.633 403.077 162.732 407.7 162.876C413.958 163.071 415.369 162.799 417.415 161.001C419.622 159.061 420.29 157.263 420.29 153.261C420.29 149.063 419.051 146.399 416.396 144.886C414.814 143.985 413.97 143.87 408.891 143.863C403.683 143.856 403.03 143.949 401.636 144.889ZM445.22 144.893C443.046 146.355 442.139 149.032 443.028 151.369C444.25 154.583 445.282 154.963 453.489 155.22C459.264 155.401 460.829 155.587 461.171 156.129C461.843 157.197 461.696 157.839 460.604 158.604C459.783 159.18 458.094 159.311 451.522 159.311H443.449V161.156V163L452.751 162.86L462.053 162.721L463.456 161.315C466.117 158.649 465.661 154.194 462.538 152.347C461.5 151.734 460.041 151.584 455.102 151.584C451.723 151.584 448.434 151.384 447.793 151.14C446.36 150.595 446.186 148.67 447.506 147.963C448.016 147.69 451.731 147.492 456.362 147.492H464.339V145.674V143.856H455.551C447.153 143.856 446.694 143.902 445.22 144.893ZM129.508 147.796C129.341 147.962 129.205 148.78 129.205 149.614V151.129H134.617C137.593 151.129 140.352 151.005 140.747 150.853C141.594 150.528 141.699 148.817 140.921 148.038C140.337 147.453 130.067 147.235 129.508 147.796ZM402.999 148.821C401.783 150.038 401.671 150.42 401.671 153.341C401.671 156.06 401.834 156.722 402.767 157.809C403.845 159.062 403.948 159.084 408.861 159.084C413.526 159.084 413.937 159.011 415.031 157.982C416.082 156.994 416.203 156.539 416.203 153.587C416.203 151.776 416.076 149.963 415.921 149.558C415.362 148.1 413.238 147.492 408.698 147.492C404.471 147.492 404.282 147.536 402.999 148.821ZM254.304 150.495C253.612 151.719 252.683 153.368 252.241 154.159C251.798 154.951 251.555 155.718 251.701 155.864C252.094 156.258 259.536 156.186 259.527 155.788C259.523 155.601 258.629 153.833 257.541 151.859L255.562 148.271L254.304 150.495ZM129.399 155.369C129.257 155.74 129.206 156.727 129.286 157.564L129.432 159.084H135.693C142.188 159.084 142.814 158.905 142.814 157.039C142.814 155.207 142.146 154.997 135.806 154.844C130.696 154.72 129.614 154.809 129.399 155.369Z" fill="#2335AD"/>
</svg>
