<svg width="684" height="173" viewBox="0 0 684 173" fill="none" xmlns="http://www.w3.org/2000/svg">
<path d="M213.74 138L257.42 40H279.82L323.64 138H299.84L264 51.48H272.96L236.98 138H213.74ZM235.58 117L241.6 99.78H292L298.16 117H235.58ZM364.608 139.26C354.901 139.26 347.341 136.88 341.928 132.12C336.514 127.267 333.808 119.987 333.808 110.28V45.18H360.408V110C360.408 112.707 361.154 114.853 362.648 116.44C364.141 117.933 366.054 118.68 368.388 118.68C371.561 118.68 374.268 117.887 376.508 116.3L383.088 134.92C380.848 136.413 378.094 137.487 374.828 138.14C371.561 138.887 368.154 139.26 364.608 139.26ZM322.748 84.8V64.92H377.768V84.8H322.748ZM393.345 138V62.12H419.945V138H393.345ZM406.645 53.72C401.791 53.72 397.871 52.3667 394.885 49.66C391.898 46.9533 390.405 43.5933 390.405 39.58C390.405 35.5667 391.898 32.2067 394.885 29.5C397.871 26.7933 401.791 25.44 406.645 25.44C411.498 25.44 415.418 26.7467 418.405 29.36C421.391 31.88 422.885 35.1467 422.885 39.16C422.885 43.36 421.391 46.86 418.405 49.66C415.511 52.3667 411.591 53.72 406.645 53.72ZM458.371 138L427.151 62.12H454.451L479.371 125.54H465.651L491.831 62.12H517.171L485.811 138H458.371ZM560.077 139.26C551.77 139.26 544.397 137.58 537.957 134.22C531.517 130.86 526.43 126.24 522.697 120.36C519.057 114.387 517.237 107.573 517.237 99.92C517.237 92.2667 519.057 85.5 522.697 79.62C526.43 73.74 531.517 69.1667 537.957 65.9C544.397 62.54 551.77 60.86 560.077 60.86C568.384 60.86 575.757 62.54 582.197 65.9C588.73 69.1667 593.817 73.74 597.457 79.62C601.097 85.5 602.917 92.2667 602.917 99.92C602.917 107.573 601.097 114.387 597.457 120.36C593.817 126.24 588.73 130.86 582.197 134.22C575.757 137.58 568.384 139.26 560.077 139.26ZM560.077 118.12C563.157 118.12 565.864 117.42 568.197 116.02C570.624 114.62 572.537 112.567 573.937 109.86C575.337 107.06 576.037 103.747 576.037 99.92C576.037 96.0933 575.337 92.8733 573.937 90.26C572.537 87.5533 570.624 85.5 568.197 84.1C565.864 82.7 563.157 82 560.077 82C557.09 82 554.384 82.7 551.957 84.1C549.624 85.5 547.71 87.5533 546.217 90.26C544.817 92.8733 544.117 96.0933 544.117 99.92C544.117 103.747 544.817 107.06 546.217 109.86C547.71 112.567 549.624 114.62 551.957 116.02C554.384 117.42 557.09 118.12 560.077 118.12ZM642.819 139.26C636.379 139.26 630.079 138.513 623.919 137.02C617.853 135.527 612.953 133.66 609.219 131.42L617.199 113.22C620.746 115.367 624.899 117.093 629.659 118.4C634.419 119.613 639.086 120.22 643.659 120.22C648.139 120.22 651.219 119.753 652.899 118.82C654.673 117.887 655.559 116.627 655.559 115.04C655.559 113.547 654.719 112.473 653.039 111.82C651.453 111.073 649.306 110.513 646.599 110.14C643.986 109.767 641.093 109.347 637.919 108.88C634.746 108.413 631.526 107.807 628.259 107.06C625.086 106.22 622.146 105.007 619.439 103.42C616.826 101.74 614.726 99.5 613.139 96.7C611.553 93.9 610.759 90.3533 610.759 86.06C610.759 81.2067 612.159 76.9133 614.959 73.18C617.853 69.3533 622.053 66.3667 627.559 64.22C633.066 61.98 639.786 60.86 647.719 60.86C653.039 60.86 658.406 61.42 663.819 62.54C669.326 63.5667 673.946 65.1533 677.679 67.3L669.699 85.36C665.966 83.2133 662.233 81.7667 658.499 81.02C654.766 80.18 651.219 79.76 647.859 79.76C643.379 79.76 640.206 80.2733 638.339 81.3C636.566 82.3267 635.679 83.5867 635.679 85.08C635.679 86.5733 636.473 87.74 638.059 88.58C639.646 89.3267 641.746 89.9333 644.359 90.4C647.066 90.7733 650.006 91.1933 653.179 91.66C656.353 92.0333 659.526 92.64 662.699 93.48C665.966 94.32 668.906 95.58 671.519 97.26C674.226 98.8467 676.373 101.04 677.959 103.84C679.546 106.547 680.339 110.047 680.339 114.34C680.339 119.007 678.893 123.207 675.999 126.94C673.199 130.673 668.999 133.66 663.399 135.9C657.893 138.14 651.033 139.26 642.819 139.26Z" fill="#64748B"/>
<rect width="173" height="173" rx="50" fill="#3056D3"/>
<path d="M85.1091 46L127 125.901L126.152 126L85.1091 56.2192C85.7601 57.4998 64.3953 110.698 67.5101 115.972C70.625 121.245 97.0182 126 97.0182 126L47 125.478L85.1091 46Z" fill="white"/>
</svg>
