<?xml version="1.0" standalone="no"?>
<!DOCTYPE svg PUBLIC "-//W3C//DTD SVG 20010904//EN"
 "http://www.w3.org/TR/2001/REC-SVG-20010904/DTD/svg10.dtd">
<svg version="1.0" xmlns="http://www.w3.org/2000/svg"
 width="173.000000pt" height="173.000000pt" viewBox="0 0 173.000000 173.000000"
 preserveAspectRatio="xMidYMid meet">

<g transform="translate(0.000000,173.000000) scale(0.100000,-0.100000)"
fill="#000000" stroke="none">
<path d="M393 1715 c-192 -42 -353 -212 -383 -405 -16 -105 -13 -831 5 -913
41 -196 209 -356 405 -387 105 -16 831 -13 913 5 196 41 356 209 387 405 16
105 13 831 -5 913 -41 196 -209 356 -405 387 -101 15 -841 12 -917 -5z m676
-854 c111 -211 199 -386 197 -388 -6 -6 -10 0 -224 364 l-189 322 -72 -207
c-82 -237 -101 -302 -101 -354 0 -47 21 -60 174 -99 l111 -28 -247 -1 c-137 0
-248 2 -248 5 0 5 314 665 357 749 18 36 27 46 33 35 4 -8 98 -187 209 -398z"/>
</g>
</svg>
