<svg width="581" height="173" viewBox="0 0 581 173" fill="none" xmlns="http://www.w3.org/2000/svg">
<path d="M213.74 138L257.42 40H279.82L323.64 138H299.84L264 51.48H272.96L236.98 138H213.74ZM235.58 117L241.6 99.78H292L298.16 117H235.58ZM352.488 138.9C345.554 138.9 340.154 137.2 336.288 133.8C332.421 130.333 330.488 125.133 330.488 118.2V71.7H349.488V118C349.488 119.933 350.021 121.467 351.088 122.6C352.154 123.667 353.521 124.2 355.188 124.2C357.454 124.2 359.388 123.633 360.988 122.5L365.688 135.8C364.088 136.867 362.121 137.633 359.788 138.1C357.454 138.633 355.021 138.9 352.488 138.9ZM322.588 100V85.8H361.888V100H322.588ZM373.014 138V83.8H392.014V138H373.014ZM382.514 77.8C379.047 77.8 376.247 76.8333 374.114 74.9C371.981 72.9667 370.914 70.5667 370.914 67.7C370.914 64.8333 371.981 62.4333 374.114 60.5C376.247 58.5667 379.047 57.6 382.514 57.6C385.981 57.6 388.781 58.5333 390.914 60.4C393.047 62.2 394.114 64.5333 394.114 67.4C394.114 70.4 393.047 72.9 390.914 74.9C388.847 76.8333 386.047 77.8 382.514 77.8ZM419.462 138L397.162 83.8H416.662L434.462 129.1H424.662L443.362 83.8H461.462L439.062 138H419.462ZM492.109 138.9C486.175 138.9 480.909 137.7 476.309 135.3C471.709 132.9 468.075 129.6 465.409 125.4C462.809 121.133 461.509 116.267 461.509 110.8C461.509 105.333 462.809 100.5 465.409 96.3C468.075 92.1 471.709 88.8333 476.309 86.5C480.909 84.1 486.175 82.9 492.109 82.9C498.042 82.9 503.309 84.1 507.909 86.5C512.575 88.8333 516.209 92.1 518.809 96.3C521.409 100.5 522.709 105.333 522.709 110.8C522.709 116.267 521.409 121.133 518.809 125.4C516.209 129.6 512.575 132.9 507.909 135.3C503.309 137.7 498.042 138.9 492.109 138.9ZM492.109 123.8C494.309 123.8 496.242 123.3 497.909 122.3C499.642 121.3 501.009 119.833 502.009 117.9C503.009 115.9 503.509 113.533 503.509 110.8C503.509 108.067 503.009 105.767 502.009 103.9C501.009 101.967 499.642 100.5 497.909 99.5C496.242 98.5 494.309 98 492.109 98C489.975 98 488.042 98.5 486.309 99.5C484.642 100.5 483.275 101.967 482.209 103.9C481.209 105.767 480.709 108.067 480.709 110.8C480.709 113.533 481.209 115.9 482.209 117.9C483.275 119.833 484.642 121.3 486.309 122.3C488.042 123.3 489.975 123.8 492.109 123.8ZM551.21 138.9C546.61 138.9 542.11 138.367 537.71 137.3C533.377 136.233 529.877 134.9 527.21 133.3L532.91 120.3C535.443 121.833 538.41 123.067 541.81 124C545.21 124.867 548.543 125.3 551.81 125.3C555.01 125.3 557.21 124.967 558.41 124.3C559.677 123.633 560.31 122.733 560.31 121.6C560.31 120.533 559.71 119.767 558.51 119.3C557.377 118.767 555.843 118.367 553.91 118.1C552.043 117.833 549.977 117.533 547.71 117.2C545.443 116.867 543.143 116.433 540.81 115.9C538.543 115.3 536.443 114.433 534.51 113.3C532.643 112.1 531.143 110.5 530.01 108.5C528.877 106.5 528.31 103.967 528.31 100.9C528.31 97.4333 529.31 94.3667 531.31 91.7C533.377 88.9667 536.377 86.8333 540.31 85.3C544.243 83.7 549.043 82.9 554.71 82.9C558.51 82.9 562.343 83.3 566.21 84.1C570.143 84.8333 573.443 85.9667 576.11 87.5L570.41 100.4C567.743 98.8667 565.077 97.8333 562.41 97.3C559.743 96.7 557.21 96.4 554.81 96.4C551.61 96.4 549.343 96.7667 548.01 97.5C546.743 98.2333 546.11 99.1333 546.11 100.2C546.11 101.267 546.677 102.1 547.81 102.7C548.943 103.233 550.443 103.667 552.31 104C554.243 104.267 556.343 104.567 558.61 104.9C560.877 105.167 563.143 105.6 565.41 106.2C567.743 106.8 569.843 107.7 571.71 108.9C573.643 110.033 575.177 111.6 576.31 113.6C577.443 115.533 578.01 118.033 578.01 121.1C578.01 124.433 576.977 127.433 574.91 130.1C572.91 132.767 569.91 134.9 565.91 136.5C561.977 138.1 557.077 138.9 551.21 138.9Z" fill="#303030"/>
<rect width="173" height="173" rx="50" fill="#3056D3"/>
<path d="M85.1091 46L127 125.901L126.152 126L85.1091 56.2192C85.7601 57.4998 64.3953 110.698 67.5101 115.972C70.625 121.245 97.0182 126 97.0182 126L47 125.478L85.1091 46Z" fill="white"/>
</svg>
