<svg width="126" height="32" viewBox="0 0 126 32" fill="none" xmlns="http://www.w3.org/2000/svg">
<g clip-path="url(#clip0_4_159)">
<path d="M97.8784 11.0749C95.6871 9.0684 92.348 8.05211 87.8349 8.05211C83.3219 8.05211 79.9827 9.0684 77.8175 11.0749C75.6523 13.0814 74.5566 16.0782 74.5566 20.013C74.5566 23.9479 75.6523 26.9446 77.8175 28.9511C79.9827 30.9576 83.3219 31.9739 87.8349 31.9739C92.348 31.9739 95.6871 30.9576 97.8784 28.9511C100.07 26.9446 101.165 23.9479 101.165 20.013C101.165 16.0782 100.07 13.0814 97.8784 11.0749ZM94.3306 25.9804C92.8958 27.3355 90.7306 28.013 87.8349 28.013C84.9132 28.013 82.774 27.3355 81.3653 25.9804C79.9566 24.6254 79.2523 22.6449 79.2523 20.013C79.2523 17.3811 79.9306 15.4006 81.3132 14.0456C82.6958 12.6905 84.861 12.013 87.8349 12.013C90.7566 12.013 92.9219 12.6905 94.3306 14.0456C95.7653 15.4006 96.4697 17.3811 96.4697 20.013C96.4697 22.6449 95.7653 24.6254 94.3306 25.9804Z" fill="white"/>
<path d="M103.487 10.9967C103.983 10.1629 104.713 9.45928 105.652 8.91204C106.591 8.36481 107.739 7.94787 109.096 7.71335C110.452 7.45276 112.017 7.34853 113.765 7.34853C117.835 7.34853 120.835 8.02605 122.791 9.3811C124.617 10.658 125.609 12.6645 125.713 15.4528C125.713 15.7655 125.53 16.0261 125.217 16.1042L122.139 16.8599C121.722 16.9642 121.33 16.6254 121.357 16.2085C121.409 15.1661 121.304 14.1498 121.017 13.6547C120.626 13.0293 120.078 12.5342 119.374 12.1954C118.644 11.8306 117.783 11.57 116.739 11.4397C115.696 11.2834 114.496 11.2052 113.113 11.2052C111.809 11.2052 110.739 11.2834 109.93 11.4658C109.122 11.6482 108.47 11.8567 108 12.1173C107.53 12.3778 107.217 12.6905 107.061 13.0293C106.904 13.3681 106.826 13.7068 106.826 14.0456C106.826 14.4104 106.957 14.7752 107.244 15.114C107.504 15.4528 107.948 15.7655 108.574 16.0782C109.174 16.3648 109.983 16.6775 111 16.9642C112.017 17.2508 113.244 17.5375 114.704 17.8241C116.452 18.1368 118.044 18.4495 119.426 18.7622C120.809 19.0749 122.009 19.4918 122.974 19.987C123.939 20.5081 124.696 21.1596 125.217 21.9935C125.739 22.8274 126 23.8958 126 25.2247C126 27.7003 125.061 29.4723 123.183 30.5146C121.304 31.557 118.591 32.0782 115.017 32.0782C110.713 32.0782 107.557 31.4006 105.6 30.0456C103.748 28.7687 102.887 27.7785 102.574 25.0423C102.548 24.7296 102.757 24.443 103.044 24.3648L106.07 23.6352C106.435 23.557 106.8 23.7915 106.852 24.1563C106.93 24.7557 107.139 25.2769 107.426 25.7459C107.844 26.3713 108.444 26.8664 109.2 27.2313C109.957 27.5961 110.896 27.8567 111.965 28.013C113.035 28.1694 114.209 28.2475 115.487 28.2475C116.661 28.2475 117.678 28.1694 118.487 28.0391C119.296 27.9088 119.974 27.7003 120.47 27.4658C120.991 27.2052 121.357 26.9186 121.565 26.5277C121.8 26.1629 121.904 25.772 121.904 25.355C121.904 24.7036 121.722 24.1824 121.357 23.8176C120.991 23.4528 120.444 23.1401 119.739 22.9055C119.035 22.671 118.174 22.4625 117.157 22.3062C116.139 22.1238 114.939 21.9153 113.557 21.6808C112.252 21.4723 110.948 21.1857 109.67 20.8469C108.391 20.5081 107.244 20.0651 106.2 19.4918C105.157 18.9446 104.322 18.215 103.67 17.355C103.017 16.4951 102.704 15.4006 102.704 14.0977C102.731 12.8469 102.991 11.8306 103.487 10.9967Z" fill="white"/>
<path d="M45.1826 31.1922C45.1826 31.6091 45.5739 31.8958 45.9652 31.7915L49.1739 30.9837C49.4609 30.9055 49.6435 30.671 49.6435 30.3844V13.7329L45.1826 14.9577V31.1922Z" fill="white"/>
<path d="M75.026 8.39088L70.7478 9.45928C70.5652 9.5114 70.4087 9.6417 70.3304 9.82411L63.1304 26.3713L56.7913 11.7785L52.3826 13.0033L60.3391 31.2182C60.5478 31.7134 61.0174 32.0261 61.5652 32.0261H64.7217C65.2434 32.0261 65.713 31.7134 65.9478 31.2182L75.626 9.06841C75.7565 8.67753 75.4174 8.28665 75.026 8.39088Z" fill="white"/>
<path d="M24.0783 12.0651C23.9217 11.9348 23.713 11.8567 23.5043 11.8567C23.4261 11.8567 23.3478 11.8567 23.2696 11.8827L22.2261 12.1433C22.1478 10.9967 21.9391 9.98045 21.6 9.0684C21.1304 7.8697 20.4261 6.85341 19.4609 6.07165C18.5478 5.31595 17.3739 4.74266 16.0435 4.37784C14.7391 4.01302 13.2 3.83061 11.4261 3.83061C9.93913 3.83061 8.55652 3.98696 7.33043 4.29967C6.05217 4.61237 4.93043 5.1596 4.01739 5.86319C3.07826 6.59283 2.34783 7.557 1.85217 8.67752C1.38261 9.79804 1.17391 10.4234 1.14783 12.8208C1.14783 13.1857 1.27826 13.5244 1.53913 13.785C1.8 14.0456 2.13913 14.1759 2.50435 14.1759C2.6087 14.1759 2.71304 14.1759 2.81739 14.1498L4.87826 13.6547C5.45217 13.5244 5.89565 13.0033 5.89565 12.3778C5.92174 11.5179 6.07826 10.8143 6.36522 10.3192C6.67826 9.77198 7.04348 9.3811 7.53913 9.14657C8.08696 8.85993 8.71304 8.67752 9.36522 8.6254C10.0957 8.54722 10.8261 8.49511 11.5565 8.49511C12.2087 8.49511 12.9391 8.54722 13.6957 8.6254C14.3739 8.70358 15 8.88599 15.5478 9.19869C16.0956 9.48533 16.5391 9.90227 16.9043 10.4756C17.2696 11.0228 17.4522 11.8306 17.4522 12.899V14.0195C17.4522 14.0456 17.4522 14.0717 17.4522 14.0977V17.1726C17.4522 17.1987 17.4522 17.2247 17.4522 17.2508V22.7492C17.4522 23.0879 17.3739 23.5049 17.1913 24.0261C17.0348 24.469 16.7217 24.912 16.2522 25.355C15.7826 25.798 15.0783 26.1889 14.1913 26.5277C13.3043 26.8664 12.0783 27.0228 10.6174 27.0228C9.36522 27.0228 8.34783 26.9446 7.5913 26.7622C6.86087 26.6059 6.31304 26.3974 5.92174 26.1368C5.58261 25.9023 5.37391 25.6677 5.26956 25.4072C5.13913 25.0945 5.08696 24.7036 5.08696 24.2866C5.08696 24.2606 5.08696 24.1824 5.08696 24.1563V24.0521V24.0261C5.11304 21.7329 6.54783 21.1857 8.58261 20.6384C8.81739 20.5863 9.02609 20.5081 9.20869 20.456L9.46956 20.3778C10.2 20.1954 10.4087 20.1433 11.0087 20.013H11.0348L14.2696 19.1791C14.687 19.0749 14.9739 18.7101 14.9739 18.2932V15.1922C14.9739 14.9055 14.8435 14.6449 14.6087 14.4625C14.4522 14.3322 14.2435 14.2541 14.0348 14.2541C13.9565 14.2541 13.9043 14.2541 13.8261 14.2801L10.7478 15.0098C9.23478 15.3485 7.43478 15.8436 6.18261 16.2085C5.97391 16.2606 5.7913 16.3388 5.55652 16.4169H5.53043C3.73043 17.0945 0.626087 18.8404 0.104348 22.9576V22.9837C0.0782609 23.2443 0.0521739 23.4006 0.0521739 23.557C0.026087 23.8436 0 24.0261 0 24.3388C0 25.7199 0.26087 26.8925 0.782609 27.8567C1.30435 28.8208 2.06087 29.6026 3.02609 30.1759C3.93913 30.7231 5.06087 31.114 6.33913 31.3225C7.56522 31.5309 8.92174 31.6352 10.3826 31.6352C12.4957 31.6352 14.113 31.4006 15.3913 30.9316C15.5739 30.8795 16.4609 30.5668 17.4261 29.9674V30.0195C17.4261 30.8274 18.0783 31.5049 18.913 31.5049C19.0435 31.5049 19.1478 31.4788 19.2783 31.4528L21.1565 30.9837C21.8087 30.8274 22.2783 30.228 22.2783 29.5505V17.0945L23.7652 16.7036C24.1826 16.5993 24.4435 16.2345 24.4435 15.8176V12.7948C24.4435 12.5081 24.313 12.2215 24.0783 12.0651Z" fill="white"/>
<path d="M57.8348 5.08143L57.0261 4.09121C56.7913 3.80456 56.4783 3.64821 56.1131 3.64821C56.0609 3.64821 56.0087 3.64821 55.9565 3.64821C55.9305 3.64821 55.8783 3.64821 55.8522 3.67427L55.0957 3.85668L50.2174 5.08143L31.5392 9.85016V5.00326C31.5392 4.24756 30.9391 3.64821 30.1826 3.64821C30.0783 3.64821 29.9739 3.67427 29.8435 3.70033L27.6783 4.24756C27.0783 4.40391 26.6609 4.92508 26.6609 5.55049V12.1433V15.114V23.0358C26.6609 24.5472 26.8435 25.8502 27.1826 26.9186C27.5478 28.0391 28.0696 28.9511 28.7739 29.6547C29.4783 30.3583 30.3131 30.8795 31.3044 31.1922C32.2435 31.4788 33.2609 31.6352 34.3565 31.6352C35.5565 31.6352 36.6783 31.4788 37.6435 31.1661C38.6609 30.8534 39.5739 30.2801 40.3044 29.4984C41.0348 28.7166 41.5826 27.7003 41.9739 26.4756C42.3131 25.355 42.7044 23.2704 42.7305 21.6808C42.7305 21.316 42.6 20.9772 42.3392 20.7166C42.0783 20.456 41.7392 20.3257 41.3739 20.3257C41.2696 20.3257 41.1652 20.3518 41.0348 20.3778L39.0522 20.873C38.3478 21.0554 37.8783 21.6026 37.8 22.3322C37.8 22.3583 37.8 22.3844 37.8 22.4104C37.8 22.4625 37.8 22.4886 37.8 22.5407C37.7739 23.3746 37.6435 24.1303 37.5131 24.5993C37.3044 25.1987 37.0696 25.6938 36.7565 26.0326C36.4696 26.3453 36.1565 26.5798 35.7913 26.7101C35.4 26.8664 34.9565 26.9186 34.4609 26.9186C33.7565 26.9186 33.2087 26.7883 32.8696 26.5537C32.4783 26.2932 32.2174 26.0065 32.0609 25.6417C31.8783 25.2248 31.7478 24.7036 31.6696 24.1303C31.5913 23.4788 31.5652 22.8534 31.5652 22.228V14.7492L50.7131 9.8241L55.7478 8.54723L56.3478 8.39088C56.6609 8.33876 56.9478 8.13029 57.1305 7.84365L57.9913 6.41042C58.1739 5.99349 58.1478 5.47231 57.8348 5.08143Z" fill="white"/>
<path d="M59.4522 8.6254L60.9131 5.2899C61.0175 5.13355 60.9914 4.89902 60.887 4.76873L58.6957 2.03257C58.487 1.77198 58.6175 1.38111 58.9566 1.27687L63.5218 -2.15694e-06C63.7044 -0.0521194 63.887 0.0260565 63.9914 0.15635L66.3914 3.12703C66.5218 3.28339 66.5218 3.49185 66.4175 3.64821L64.4609 7.81759C64.4088 7.92182 64.3044 8 64.174 8.02606L59.974 9.30293C59.5566 9.43322 59.2175 8.99022 59.4522 8.6254Z" fill="white"/>
</g>
<defs>
<clipPath id="clip0_4_159">
<rect width="126" height="32" fill="white"/>
</clipPath>
</defs>
</svg>
