<?xml version="1.0" encoding="UTF-8"?>
<svg version="1.1" xmlns="http://www.w3.org/2000/svg" width="800" height="450">
<path d="M0 0 C4.26102169 0.01542819 8.52201359 0.00731419 12.78305137 0.00231326 C21.09772765 -0.00386678 29.41223536 0.01096415 37.72687935 0.03303888 C47.42963339 0.05789702 57.13235794 0.06065043 66.8351391 0.06244264 C84.15377081 0.06630668 101.47232729 0.08868936 118.79092491 0.12223208 C135.56241249 0.15468819 152.3338604 0.17592024 169.10537803 0.18375552 C170.65663976 0.18448375 170.65663976 0.18448375 172.2392401 0.1852267 C176.39734402 0.18715583 180.55544794 0.18906796 184.71355188 0.19094281 C201.71841937 0.19894398 218.72327911 0.2161994 235.72813809 0.23457897 C239.59153399 0.23871496 243.45492995 0.24243813 247.31832659 0.24580133 C257.46696917 0.25474563 267.61559294 0.26660835 277.76421904 0.28736737 C281.95650838 0.29591375 286.14878502 0.30302789 290.34108245 0.30588305 C294.18803598 0.3085797 298.03495284 0.3159509 301.88189156 0.32687352 C303.91173484 0.33152366 305.94158726 0.33147816 307.97143584 0.33119184 C320.24529982 0.37535349 332.48056512 0.62273969 344.42935264 3.66642153 C345.76510337 3.99960391 345.76510337 3.99960391 347.12783897 4.33951724 C367.53434349 9.59892562 385.9250944 18.75070748 401.99185264 32.47892153 C402.53148643 32.93492739 403.07112022 33.39093325 403.62710655 33.86075747 C422.89860367 50.32429972 436.18548846 71.8384595 444.99185264 95.47892153 C450.75764535 94.51950507 456.44722152 93.41441022 462.11294639 91.97110903 C463.15128623 91.70685122 464.18962608 91.44259341 465.25943077 91.17032778 C467.37095188 90.62651027 469.48036286 90.07443211 471.58755577 89.51407778 C478.58546117 87.75267072 485.77891417 86.27215571 492.99185264 87.47892153 C496.35084586 89.71236155 498.58353887 92.26248469 500.99185264 95.47892153 C501.89290733 96.59460513 501.89290733 96.59460513 502.81216514 97.73282778 C506.01470366 102.01529208 507.49536749 104.85930542 507.30777061 110.4095856 C506.77738907 113.88370764 505.13654763 116.67635682 503.30435264 119.60392153 C502.96468467 120.18528872 502.6250167 120.76665591 502.27505577 121.36564028 C496.57411348 130.89207468 490.92665024 134.33391335 480.29793155 137.03712904 C479.62925461 137.2022565 478.96057767 137.36738396 478.2716378 137.53751528 C477.53913464 137.72243438 476.80663148 137.90735348 476.05193126 138.09787619 C473.62932027 138.70836906 471.20513549 139.312354 468.78091514 139.91642153 C467.04545657 140.35259584 465.3101128 140.78922716 463.57487571 141.22628176 C459.86450274 142.16002277 456.15347242 143.09108555 452.44189537 144.02002871 C443.53661019 146.24921819 434.63507539 148.49331325 425.733199 150.73606837 C422.69389869 151.50167656 419.65447113 152.26677816 416.61503685 153.03185427 C398.86814143 157.50085515 381.13717987 162.0305025 363.41371238 166.59143603 C361.18145938 167.16587939 358.9491511 167.74010745 356.71682823 168.3142792 C350.76690646 169.84473504 344.81709492 171.37561834 338.86755455 172.90755618 C327.2266247 175.90489445 315.58417042 178.89627103 303.94107139 181.88517153 C303.07219228 182.10822278 302.20331317 182.33127402 301.3081044 182.56108439 C297.00622099 183.66540249 292.70431836 184.76964569 288.40240562 185.87384951 C281.17943234 187.72785484 273.95661323 189.58246055 266.73379028 191.43705142 C263.35936816 192.30349038 259.98493623 193.16989116 256.61050498 194.03629458 C254.73762087 194.51717023 252.86473676 194.99804588 250.99185264 195.47892153 C250.96830363 203.63521049 250.95072724 211.79148439 250.94004047 219.94779932 C250.934902 223.7382966 250.92797716 227.52877002 250.91641319 231.31925356 C250.87216392 246.26950352 250.86753843 261.21122762 251.38638389 276.15470278 C251.41908882 277.19585238 251.45179374 278.23700198 251.48548973 279.30970156 C251.84500218 288.18647135 252.80895447 296.39828285 258.42935264 303.60392153 C266.40295916 309.43826776 273.22310732 310.14801368 282.99185264 309.47892153 C289.13282994 308.38814654 295.03700024 306.56854692 298.99185264 301.47892153 C304.35431393 292.64890716 306.54688062 284.68861625 307.62954795 274.55338442 C309.17817445 260.60777974 309.17817445 260.60777974 312.99185264 256.47892153 C321.82011611 249.73434758 338.02855113 246.0411115 348.99185264 247.47892153 C354.02981833 249.90460871 355.86017727 252.40321313 357.99185264 257.47892153 C361.33644483 280.52948929 353.57572697 312.21323133 340.11685264 331.11173403 C333.92206238 339.21819785 327.51113903 344.95775917 318.49185264 349.66642153 C317.89437217 349.98755923 317.2968917 350.30869692 316.68130577 350.63956606 C304.8665932 356.48948132 292.14986489 358.15454036 279.13736045 358.00040591 C276.9913559 357.97891656 274.84869617 358.00037806 272.70279014 358.02579653 C252.6325239 358.06641013 234.91591703 351.92979364 220.28482139 337.83439028 C211.85038404 328.68781046 207.20886928 317.31079545 203.99185264 305.47892153 C203.81797334 304.85404691 203.64409404 304.22917229 203.46494567 303.58536208 C201.33054954 294.66299341 201.66409567 285.57780303 201.63784873 276.46256411 C201.6253007 274.5414319 201.61200547 272.62030446 201.5980233 270.69918215 C201.55619909 264.42397261 201.53525789 258.1487634 201.51529014 251.87345278 C201.50718847 249.7073165 201.49895444 247.5411807 201.49058998 245.37504542 C201.45256051 235.20626413 201.42407069 225.03751139 201.40736604 214.86867279 C201.38778189 203.14296914 201.33501105 191.41801659 201.25436425 179.69257778 C201.1940777 170.61547764 201.16443268 161.53859334 201.15780401 152.46129686 C201.15310324 147.0444509 201.13518491 141.62841092 201.08488166 136.21178019 C201.03836358 131.12160129 201.02983359 126.03276069 201.05040443 120.94242442 C201.05139613 119.07635703 201.03872507 117.21022409 201.01129234 115.34435809 C200.8160114 101.27420936 200.8160114 101.27420936 203.72827709 96.82772887 C207.34301405 93.5591221 211.16718122 91.55386821 215.92544639 90.41251528 C216.98698936 90.15534731 218.04853233 89.89817935 219.14224327 89.63321841 C220.22698936 89.39667544 221.31173545 89.16013247 222.42935264 88.91642153 C224.050671 88.50940005 224.050671 88.50940005 225.70474327 88.09415591 C232.06626541 86.62433181 237.85584313 85.72738836 243.99185264 88.47892153 C247.08162288 91.14373769 249.83580314 94.40698025 250.15007102 98.57966006 C250.16561531 99.44569857 250.18115959 100.31173708 250.19717491 101.20401919 C250.21712013 102.18488497 250.23706535 103.16575076 250.25761497 104.17633975 C250.28268371 105.76857867 250.28268371 105.76857867 250.30825889 107.39298403 C250.32903999 108.47776034 250.34982109 109.56253664 250.37123191 110.68018496 C250.43675898 114.15469774 250.49562711 117.62928777 250.55435264 121.10392153 C250.59753485 123.45549211 250.64114904 125.8070548 250.68521202 128.15860903 C250.79244357 133.93196423 250.89420408 139.70539673 250.99185264 145.47892153 C260.201454 143.19234143 269.40959932 140.89993531 278.61685264 138.60392153 C279.31840099 138.42899928 280.01994934 138.25407702 280.74275672 138.07385409 C307.29912829 131.45075357 333.81569871 124.67823277 360.31324184 117.82375872 C363.21035237 117.07449274 366.10772028 116.32622477 369.00510299 115.57801211 C370.98186753 115.06696357 372.95816546 114.55414074 374.93443382 114.04117739 C381.26629038 112.40514865 387.59677338 110.84803559 393.99185264 109.47892153 C393.99185264 104.92457055 392.60645907 102.23199689 390.49185264 98.35392153 C390.13381553 97.68957095 389.77577842 97.02522036 389.4068917 96.34073794 C386.18962014 90.53419499 382.33265917 85.49455933 377.99185264 80.47892153 C377.34474327 79.64231997 376.69763389 78.80571841 376.03091514 77.94376528 C363.44905299 62.73465606 341.84969386 54.57453887 322.99185264 51.47892153 C318.32266575 51.10503284 313.68891743 51.08051476 309.00659263 51.11142886 C307.65740342 51.10939835 306.30821567 51.10605181 304.95903254 51.10152328 C301.29350938 51.09296555 297.62824417 51.10285572 293.96274364 51.11606562 C289.99240558 51.12705023 286.02208904 51.12053659 282.05174339 51.11628115 C274.2864329 51.11066847 266.52122183 51.12092599 258.75592826 51.13656911 C249.68502114 51.15419511 240.61413274 51.15553031 231.54321118 51.1561847 C215.33205997 51.1578705 199.12095361 51.17365123 182.90982139 51.19767153 C167.23957021 51.22087307 151.56934743 51.23508923 135.8990792 51.23868716 C134.45426101 51.23902131 134.45426101 51.23902131 132.98025458 51.23936221 C131.03934402 51.23980487 129.09843345 51.24024689 127.15752289 51.24068828 C125.72076462 51.24101763 125.72076462 51.24101763 124.25498092 51.24135363 C122.82146661 51.24167761 122.82146661 51.24167761 121.35899242 51.24200813 C106.35261714 51.24572988 91.34624633 51.25709279 76.33987605 51.26948403 C70.93387235 51.27388753 65.52786907 51.2773388 60.1218643 51.28010616 C51.53018223 51.28458079 42.93851679 51.29249606 34.34684514 51.30688056 C30.43046092 51.31339148 26.51409086 51.31853743 22.59770095 51.3193413 C7.87174283 51.32358819 -6.84528616 51.4151978 -21.56487954 51.89133608 C-23.27363052 51.94219052 -23.27363052 51.94219052 -25.01690173 51.99407232 C-48.22505835 52.85136202 -68.35701239 63.8915707 -84.36752236 80.42814028 C-100.45407822 98.39303118 -105.63890567 120.52195068 -105.52572548 143.93595278 C-105.53115872 145.84484286 -105.53828805 147.75372875 -105.54696572 149.66260684 C-105.56505924 154.80316409 -105.55818977 159.94339695 -105.54544938 165.08395922 C-105.53524874 170.49011698 -105.54473452 175.89624889 -105.55099404 181.30240786 C-105.55825001 190.37724645 -105.54873674 199.45195439 -105.52963173 208.5267731 C-105.50786702 218.98502763 -105.51491985 229.44297012 -105.53693736 239.9012171 C-105.55514997 248.91656834 -105.55762112 257.93182621 -105.54718268 266.94718993 C-105.54097987 272.31586147 -105.54002292 277.68438685 -105.55332863 283.05304873 C-105.56497223 288.10285412 -105.55670757 293.15226126 -105.53375161 298.2020241 C-105.52850963 300.04372019 -105.52989982 301.88545041 -105.53880227 303.72713244 C-105.6486215 328.7751672 -97.58256098 350.49982298 -80.19564736 368.79142153 C-66.658902 381.69164282 -47.65041071 392.37779025 -28.57458317 392.68046248 C-27.49465513 392.69964354 -26.41472709 392.7188246 -25.30207396 392.7385869 C-23.53881944 392.76252699 -23.53881944 392.76252699 -21.73994362 392.78695071 C-19.87191155 392.81720802 -19.87191155 392.81720802 -17.96614146 392.84807658 C-14.54142281 392.90175463 -11.11670619 392.95084286 -7.69188292 392.99706079 C-5.51614978 393.02673615 -3.34044399 393.05797373 -1.16473866 393.08961868 C31.90500082 393.56732134 64.97414695 393.67822918 98.04687092 393.714564 C101.18101699 393.71813484 104.31516223 393.72226817 107.4493076 393.72640366 C121.37381462 393.74472355 135.29832204 393.760476 149.22283924 393.76830161 C152.56031312 393.77020922 155.89778699 393.77213002 159.23526084 393.77408755 C160.47844541 393.77481316 160.47844541 393.77481316 161.74674482 393.77555343 C175.30696576 393.78393559 188.86710095 393.80947518 202.42728411 393.84166823 C216.5026049 393.8748037 230.57788163 393.89275241 244.65324157 393.89594585 C252.49669701 393.89809465 260.34002351 393.90661226 268.18344009 393.93240702 C274.81986814 393.95419581 281.45613512 393.96212077 288.09259491 393.95244024 C291.46349582 393.94793198 294.83379747 393.95181561 298.20469558 393.96920168 C325.1589454 394.10040664 347.26232184 390.06846417 368.99185264 373.47892153 C369.65443077 373.00067935 370.31700889 372.52243716 370.99966514 372.02970278 C385.82526441 360.54848289 395.80426082 339.55962648 398.99185264 321.47892153 C400.25631989 308.2016437 400.12778472 294.85956032 400.12995231 281.53680575 C400.13431924 275.141158 400.16537994 268.74560638 400.19107139 262.35001528 C400.22151698 254.25183635 400.24462525 246.15382255 400.24234092 238.05558169 C400.2405828 231.46764679 400.26481431 224.88012114 400.30422294 218.29228365 C400.31468948 215.79004174 400.31620224 213.28774567 400.3085717 210.78549349 C400.29898887 207.30094242 400.32005114 203.81783419 400.34829795 200.33341372 C400.33810127 199.30276293 400.32790458 198.27211215 400.31739891 197.21022952 C400.38600608 192.50204016 400.42768014 190.22599034 403.33142173 186.38089907 C406.45552775 184.14743401 409.07732483 183.22467391 412.79654014 182.27579653 C413.43874504 182.10767458 414.08094993 181.93955264 414.74261558 181.76633608 C416.78025631 181.23762251 418.82310759 180.73345448 420.86685264 180.22892153 C422.23052244 179.8762539 423.59380868 179.52209959 424.95669639 179.16642153 C441.49262053 174.91317357 441.49262053 174.91317357 446.30435264 176.72892153 C448.99185264 178.47892153 448.99185264 178.47892153 450.99185264 181.47892153 C451.24632823 183.93177855 451.24632823 183.93177855 451.25254905 186.90615237 C451.25963386 188.03411227 451.26671867 189.16207217 451.27401817 190.32421267 C451.27154075 191.56305712 451.26906333 192.80190157 451.26651084 194.07828677 C451.27162178 195.38283816 451.27673271 196.68738955 451.28199852 198.0314728 C451.29541522 201.61726278 451.29596271 205.20294748 451.29343522 208.78875768 C451.29236423 211.79427875 451.29725375 214.79977864 451.30204064 217.80529517 C451.3131516 224.91665351 451.31356866 232.02795909 451.30752647 239.13932192 C451.30152671 246.42868444 451.31369122 253.71785198 451.33509654 261.00718123 C451.35286073 267.29201575 451.35868963 273.57678915 451.3554588 279.86164778 C451.35366426 283.60254384 451.35609247 287.34330182 451.37017334 291.08417475 C451.4400493 311.39305103 451.21478861 331.28851159 444.36685264 350.66642153 C444.02057823 351.66979556 443.67430381 352.67316958 443.31753623 353.70694888 C430.7363985 388.95102196 404.39637389 416.14468264 370.99185264 432.45548403 C357.33939283 438.7697467 341.36204346 443.32134372 326.29879272 443.79077876 C324.99271163 443.83208639 323.68663054 443.87339402 322.34097123 443.9159534 C320.92502041 443.95555201 319.50905596 443.9946655 318.09307945 444.03333437 C317.00100098 444.06479167 317.00100098 444.06479167 315.88686033 444.09688447 C300.75531955 444.52889231 285.62989641 444.62379926 270.49233377 444.6096462 C266.78676301 444.60732136 263.0811963 444.61090574 259.37562644 444.61362612 C252.16875089 444.61800905 244.96188591 444.61714139 237.75500999 444.61421348 C231.8845917 444.61192983 226.01417631 444.61165954 220.1437577 444.6127373 C219.29959265 444.61289053 218.45542761 444.61304376 217.5856818 444.61320164 C215.8693571 444.61352145 214.15303239 444.61384567 212.43670769 444.61417423 C196.44682858 444.61700701 180.45695525 444.61377669 164.46707709 444.60837387 C150.82364001 444.60390621 137.18021144 444.60468576 123.53677452 444.60929263 C107.59040095 444.61467479 91.64403241 444.61673423 75.69765806 444.61368036 C73.98921073 444.6133619 72.28076339 444.61304753 70.57231605 444.6127373 C69.73230265 444.61258302 68.89228924 444.61242875 68.02682089 444.6122698 C62.18000298 444.61141563 56.33318833 444.61284341 50.48637092 444.61521685 C43.33757468 444.61805579 36.18878937 444.61719199 29.03999434 444.61193611 C25.41069091 444.60935349 21.78140554 444.60819833 18.15210235 444.61158526 C4.15194843 444.62342334 -9.84216382 444.53791474 -23.8369569 444.1380832 C-25.80717497 444.08212028 -27.77755341 444.03189433 -29.74793124 443.98187137 C-39.3098401 443.67345631 -47.91099429 442.36362483 -57.00814736 439.47892153 C-58.19924111 439.15278872 -59.39033486 438.82665591 -60.61752236 438.49064028 C-76.14723107 433.90837645 -91.52081969 425.76592188 -104.00814736 415.47892153 C-104.53924111 415.05562563 -105.07033486 414.63232974 -105.61752236 414.19620669 C-126.53854142 397.4864851 -141.72970915 375.74279883 -150.32064736 350.35392153 C-150.55098671 349.67490786 -150.78132607 348.99589419 -151.01864541 348.29630435 C-151.74286665 346.03726562 -152.38063861 343.76687822 -153.00814736 341.47892153 C-153.26251313 340.5536922 -153.5168789 339.62846287 -153.77895272 338.67519629 C-156.37775346 328.06014501 -156.44677282 317.81826773 -156.42806923 306.94547427 C-156.43542341 304.90853822 -156.44401353 302.87160632 -156.45373452 300.8346802 C-156.47582222 295.33836936 -156.47888745 289.84220901 -156.476987 284.34585989 C-156.47686666 279.73683965 -156.48545708 275.12785055 -156.49376452 270.51883906 C-156.51295447 259.6307559 -156.51589922 248.74274939 -156.50912392 237.85465395 C-156.50249329 226.67340223 -156.52531854 215.49248123 -156.56243765 204.31129652 C-156.59327271 194.66828383 -156.60447959 185.02537674 -156.60060084 175.38231581 C-156.5985468 169.64226997 -156.6038019 163.9024814 -156.62849343 158.16248286 C-156.6509861 152.75560545 -156.64869818 147.3492599 -156.62856591 141.94237864 C-156.62519479 139.9758006 -156.63007292 138.00918514 -156.64454949 136.04265749 C-156.89799816 99.01160619 -141.62047425 65.96472405 -116.00814736 39.47892153 C-83.75384895 7.94605278 -43.67260491 -0.20424677 0 0 Z " fill="#AEB7C0" transform="translate(206.00814735889435,2.5210784673690796)"/>
<path d="M0 0 C2.72046302 0.00315318 5.43982714 -0.02036604 8.16015625 -0.0456543 C36.5170241 -0.14853497 65.48988943 6.24605268 86.34765625 26.62036133 C99.77823625 40.72697723 107.30373864 59.78599383 106.98828125 79.31567383 C107.70113281 79.0759082 108.41398438 78.83614258 109.1484375 78.58911133 C115.18681119 76.7198974 119.16900703 75.5272716 124.98828125 78.31567383 C127.72338959 80.88707084 127.99593325 82.38350445 128.42407227 86.17871094 C128.46404138 87.73313181 128.48565683 89.28809663 128.4921875 90.84301758 C128.5021727 91.66894913 128.5121579 92.49488068 128.52244568 93.34584045 C128.53760949 95.08988444 128.54467201 96.83401516 128.54418945 98.578125 C128.55075237 101.24145232 128.60524737 103.90105274 128.66210938 106.5637207 C128.67091204 108.26097362 128.67686586 109.95824418 128.6796875 111.65551758 C128.70124405 112.44836655 128.7228006 113.24121552 128.74501038 114.05809021 C128.67842826 119.4503699 128.67842826 119.4503699 126.70617676 121.923172 C123.51530648 124.66922876 120.42435413 126.15008444 116.36328125 127.12817383 C115.44289063 127.36149414 114.5225 127.59481445 113.57421875 127.83520508 C110.98828125 128.31567383 110.98828125 128.31567383 106.98828125 128.31567383 C106.99196842 128.95435961 106.99565559 129.59304539 106.9994545 130.25108528 C107.08783771 145.80026614 107.15400638 161.34935948 107.19552994 176.89872932 C107.21614479 184.41833652 107.24424457 191.93777591 107.29003906 199.45727539 C107.32994008 206.01219257 107.3557219 212.56698821 107.36463523 219.12202346 C107.36984454 222.59210309 107.38206519 226.06183506 107.41120148 229.53180313 C107.44348318 233.40790515 107.44423855 237.28366875 107.44238281 241.15991211 C107.45676392 242.30718277 107.47114502 243.45445343 107.48596191 244.63648987 C107.45386344 250.82435208 107.25071463 254.67285155 102.98828125 259.31567383 C93.76450554 265.23281296 79.90230947 269.11001406 68.98828125 267.31567383 C63.54287443 264.84048891 61.49699956 261.52608877 58.98828125 256.31567383 C58.98828125 255.65567383 58.98828125 254.99567383 58.98828125 254.31567383 C57.993125 254.83516602 56.99796875 255.3546582 55.97265625 255.88989258 C44.99296634 261.43496201 34.04781879 264.92472804 21.98828125 267.31567383 C21.13379395 267.49453125 20.27930664 267.67338867 19.39892578 267.85766602 C14.61535212 268.5000414 9.8766473 268.51877335 5.0546875 268.55395508 C3.98572739 268.56202682 2.91676727 268.57009857 1.81541443 268.57841492 C-0.45320024 268.59222915 -2.72183546 268.60296317 -4.99047852 268.61083984 C-7.26593298 268.62224362 -9.54136325 268.6425056 -11.81665039 268.67236328 C-37.12890029 269.00378693 -65.09916842 267.26313752 -86.01171875 251.31567383 C-86.8728125 250.65954102 -87.73390625 250.0034082 -88.62109375 249.32739258 C-101.23907211 238.86976506 -108.26789337 223.46807655 -110.01171875 207.31567383 C-111.53476413 182.76527232 -105.47596639 160.10677445 -89.01171875 141.31567383 C-68.59233598 120.06660959 -37.68217799 114.82623806 -10.32421875 108.06567383 C-7.74127555 107.42348904 -5.15875218 106.77963023 -2.57617188 106.13598633 C-0.11337287 105.52363857 2.34951457 104.91164633 4.8125 104.30004883 C5.96143234 104.01466248 7.11036469 103.72927612 8.29411316 103.4352417 C9.36325455 103.17116516 10.43239594 102.90708862 11.53393555 102.63500977 C12.4694072 102.40360291 13.40487885 102.17219604 14.36869812 101.93377686 C19.9287158 100.62186439 25.26728401 99.53836442 30.98828125 100.31567383 C33.85857994 102.10961051 35.47959763 103.29830659 36.98828125 106.31567383 C37.12366599 108.9441918 37.20094188 111.54494491 37.2265625 114.17504883 C37.23463425 114.95704651 37.24270599 115.73904419 37.25102234 116.54473877 C37.26486345 118.20241072 37.27558549 119.86011117 37.28344727 121.51782227 C37.30062116 124.04214262 37.3444999 126.56513969 37.38867188 129.08911133 C37.39880255 130.70108088 37.40731748 132.31306155 37.4140625 133.92504883 C37.43157059 134.67526306 37.44907867 135.42547729 37.46711731 136.19842529 C37.44585497 141.38643648 36.41717814 144.41716076 32.98828125 148.31567383 C30.70288086 149.49658203 30.70288086 149.49658203 28.140625 150.11645508 C27.15980957 150.3667749 26.17899414 150.61709473 25.16845703 150.875 C24.09837402 151.12354736 23.02829102 151.37209473 21.92578125 151.62817383 C20.80413574 151.90959229 19.68249023 152.19101074 18.52685547 152.48095703 C16.04707155 153.10215983 13.56481394 153.71354559 11.08056641 154.31665039 C4.34136465 155.95314096 -2.37248819 157.6903635 -9.08932495 159.41586304 C-11.33421159 159.98975078 -13.58099695 160.55556335 -15.82836914 161.11962891 C-38.13974767 166.076075 -38.13974767 166.076075 -55.01171875 180.31567383 C-59.18494765 188.26468126 -58.95667124 198.70170934 -56.8203125 207.27661133 C-54.90627703 212.10330948 -50.46947064 214.22646203 -46.07421875 216.44067383 C-34.4694569 221.11237645 -22.35692801 221.82928756 -10.00585938 221.76171875 C-7.64494516 221.7532035 -5.2864593 221.7821176 -2.92578125 221.8137207 C10.84483331 221.87902795 24.54787431 220.02528704 36.80078125 213.31567383 C37.45369141 212.98567383 38.10660156 212.65567383 38.77929688 212.31567383 C42.44638301 210.40176139 45.14315925 208.28680356 47.98828125 205.31567383 C48.64828125 205.31567383 49.30828125 205.31567383 49.98828125 205.31567383 C50.26542969 204.75750977 50.54257812 204.1993457 50.828125 203.62426758 C51.62042577 202.04766908 52.42573648 200.47755866 53.2421875 198.91333008 C53.67402344 198.07672852 54.10585938 197.24012695 54.55078125 196.37817383 C54.98519531 195.54415039 55.41960937 194.71012695 55.8671875 193.85083008 C58.36340791 188.20606685 58.13651597 182.56169227 58.13354492 176.49926758 C58.13690353 175.51480148 58.14026215 174.53033539 58.14372253 173.51603699 C58.15321901 170.2617364 58.15517541 167.00748741 58.15625 163.75317383 C58.15946496 161.48217752 58.16282921 159.21118142 58.16633606 156.94018555 C58.17232512 152.17553223 58.17417633 147.41089705 58.17358398 142.64624023 C58.17348271 136.56841767 58.18709972 130.49071284 58.20435619 124.41291809 C58.2155305 119.71831743 58.21750148 115.02374467 58.21697426 110.32913208 C58.21814755 108.09025672 58.22253244 105.85138048 58.23030663 103.61251831 C59.15773897 79.96743757 59.15773897 79.96743757 49.26953125 59.38598633 C36.42635888 47.12180944 19.28155342 46.96561461 2.48828125 47.06567383 C1.19019531 47.05793945 -0.10789062 47.05020508 -1.4453125 47.04223633 C-13.29120336 47.06590444 -25.49939094 47.31462442 -36.01171875 53.31567383 C-36.64722656 53.6637207 -37.28273438 54.01176758 -37.9375 54.37036133 C-43.71321167 57.9569917 -46.95623216 63.42343103 -48.72216797 69.93554688 C-49.23957796 72.6397416 -49.67968976 75.34089723 -50.07421875 78.06567383 C-51.15792644 85.45977511 -51.96648299 90.29757619 -58.2578125 94.99145508 C-61.75726595 96.67417099 -65.30766602 97.64195914 -69.07421875 98.50317383 C-70.19824097 98.7603418 -70.19824097 98.7603418 -71.3449707 99.02270508 C-78.9314564 100.65759072 -86.31150538 102.00349045 -93.57421875 98.69067383 C-97.25807144 95.1012789 -98.85548626 91.86119953 -99.375 86.72192383 C-99.05859123 62.38278798 -93.29622752 41.23762548 -76.01171875 23.31567383 C-65.69131465 14.00849314 -53.60305033 8.49965493 -40.44921875 4.50317383 C-39.49656128 4.21071777 -39.49656128 4.21071777 -38.5246582 3.91235352 C-25.85516417 0.32279543 -13.06510402 -0.03154129 0 0 Z " fill="#AEB7C0" transform="translate(259.01171875,91.684326171875)"/>
<path d="M0 0 C9.06822014 8.01484103 20.96274199 20.8804097 26 32 C25.51778891 36.60558657 23.5134266 40.55255672 21.54296875 44.6796875 C21.19873367 45.41067657 20.8544986 46.14166565 20.49983215 46.89480591 C19.77196676 48.43746134 19.04141389 49.97885124 18.30834961 51.51904297 C17.19588649 53.85737211 16.09238323 56.19976333 14.99023438 58.54296875 C14.27917419 60.04712489 13.567602 61.55103911 12.85546875 63.0546875 C12.52927048 63.74658173 12.2030722 64.43847595 11.86698914 65.15133667 C11.23561474 66.47473915 10.59163999 67.79221625 9.93418884 69.1028595 C9.31680409 70.35663772 8.74022614 71.63143313 8.20851135 72.9238739 C6.40819927 76.84614777 4.57409148 78.51306506 0.67797852 80.01977539 C-1.07975752 80.57386635 -2.84702231 81.09833344 -4.62109375 81.59765625 C-5.55800552 81.88104355 -6.4949173 82.16443085 -7.46022034 82.45640564 C-9.43594907 83.04769008 -11.41559389 83.62602534 -13.39868164 84.19213867 C-16.43327554 85.06129005 -19.45155267 85.97528351 -22.47070312 86.89648438 C-24.39503542 87.46624353 -26.32014328 88.03339118 -28.24609375 88.59765625 C-29.59942055 89.00673973 -29.59942055 89.00673973 -30.98008728 89.42408752 C-34.65733225 90.45587621 -37.25073537 91.13213136 -41.04711914 90.46264648 C-43 89 -43 89 -43.96606445 86.77954102 C-44.01017382 83.16669834 -43.00191788 80.83092483 -41.54296875 77.52734375 C-41.27994461 76.92241592 -41.01692047 76.3174881 -40.7459259 75.69422913 C-39.90546024 73.76961817 -39.04675646 71.85378403 -38.1875 69.9375 C-37.62054888 68.6457065 -37.054781 67.35339301 -36.49023438 66.06054688 C-32.47829725 56.91182974 -32.47829725 56.91182974 -30.84179688 53.79199219 C-29.56709463 51.0784439 -29.679865 48.95064186 -30 46 C-31.25730299 43.94774989 -31.25730299 43.94774989 -33.1875 42.1875 C-37.42148848 37.74028908 -41.19905285 33.0505165 -44.9375 28.1875 C-45.51717529 27.44588623 -46.09685059 26.70427246 -46.6940918 25.94018555 C-47.23718994 25.231604 -47.78028809 24.52302246 -48.33984375 23.79296875 C-49.07255493 22.84200317 -49.07255493 22.84200317 -49.82006836 21.87182617 C-51.08743319 19.86129727 -51.67317637 18.35012961 -52 16 C-51 13 -51 13 -49.14428711 12.01879883 C-40.84765058 9.17924464 -32.45538564 6.72098355 -24.0090332 4.37084961 C-21.54013476 3.68125309 -19.07584113 2.97657167 -16.61132812 2.27148438 C-15.03411271 1.82980487 -13.4566474 1.38901657 -11.87890625 0.94921875 C-11.14660294 0.73786789 -10.41429962 0.52651703 -9.6598053 0.3087616 C-3.20840686 -1.45608301 -3.20840686 -1.45608301 0 0 Z " fill="#AEB7C0" transform="translate(768,55)"/>
</svg>
