<?xml version="1.0" standalone="no"?>
<!DOCTYPE svg PUBLIC "-//W3C//DTD SVG 20010904//EN"
 "http://www.w3.org/TR/2001/REC-SVG-20010904/DTD/svg10.dtd">
<svg version="1.0" xmlns="http://www.w3.org/2000/svg"
 width="529.000000pt" height="93.000000pt" viewBox="0 0 529.000000 93.000000"
 preserveAspectRatio="xMidYMid meet">

<g transform="translate(0.000000,93.000000) scale(0.100000,-0.100000)"
fill="#000000" stroke="none">
<path d="M1522 795 c-37 -31 -123 -160 -196 -295 -81 -148 -188 -389 -182
-406 4 -12 23 -14 83 -12 l78 3 45 90 45 90 193 3 c114 1 200 -2 211 -8 10 -5
31 -40 46 -77 39 -98 45 -103 131 -103 40 0 75 4 78 8 5 9 -53 150 -120 287
-86 178 -224 400 -266 429 -36 25 -111 21 -146 -9z m146 -258 c90 -152 98
-137 -67 -137 -86 0 -141 4 -141 10 0 15 130 230 139 230 4 0 35 -46 69 -103z"/>
<path d="M3683 810 c-29 -12 -157 -206 -238 -363 -80 -153 -166 -347 -159
-359 3 -4 41 -8 85 -8 l80 0 40 87 c22 48 46 91 52 95 16 10 388 10 404 0 7
-4 24 -34 38 -67 51 -119 41 -110 133 -113 68 -2 82 0 82 12 0 9 -16 55 -36
103 -105 254 -312 602 -367 617 -31 8 -88 6 -114 -4z m147 -296 c69 -121 75
-114 -84 -114 -87 0 -136 4 -136 10 0 16 36 84 87 163 l46 71 22 -28 c13 -16
42 -62 65 -102z"/>
<path d="M148 458 c-2 -205 0 -358 5 -365 6 -9 36 -13 83 -13 41 0 75 1 75 3
1 1 3 132 5 290 2 158 6 292 9 297 8 14 271 13 335 -1 56 -12 80 -37 80 -82 0
-76 -45 -99 -209 -107 l-124 -5 55 -37 c63 -44 222 -206 291 -295 l47 -63 78
0 c43 0 82 3 85 6 12 12 -54 122 -129 213 l-74 90 32 17 c76 38 118 103 118
184 0 63 -18 106 -61 147 -69 65 -83 68 -406 71 l-291 3 -4 -353z"/>
<path d="M2290 445 l0 -365 224 0 c315 0 426 25 521 117 58 56 78 111 83 227
8 178 -30 262 -147 325 -97 51 -164 61 -438 61 l-243 0 0 -365z m552 211 c72
-27 105 -70 114 -152 4 -40 2 -93 -4 -129 -10 -51 -17 -65 -51 -96 -59 -53
-110 -64 -291 -64 l-155 0 -3 220 c-1 121 0 226 3 233 8 22 323 11 387 -12z"/>
<path d="M4568 796 c-62 -17 -110 -51 -143 -101 -24 -36 -26 -48 -23 -112 3
-62 7 -76 34 -110 17 -21 50 -49 73 -61 l41 -24 -48 -56 c-89 -104 -170 -231
-155 -246 4 -3 43 -6 88 -6 l81 0 52 74 c68 95 179 209 266 274 l69 52 -102 0
c-168 0 -231 28 -231 104 0 77 53 96 270 96 100 0 141 -3 147 -12 4 -7 6 -137
4 -289 -2 -233 0 -277 12 -288 10 -8 41 -11 89 -9 l73 3 0 360 0 360 -275 2
c-196 1 -288 -2 -322 -11z"/>
</g>
</svg>
